<svg width="119" height="40" viewBox="0 0 119 40" fill="none" xmlns="http://www.w3.org/2000/svg">
<g clip-path="url(#clip0_0_277)">
<path d="M109.538 0.00013H9.64419C9.28007 0.00013 8.92031 0.00013 8.55715 0.00213C8.25315 0.00413 7.95157 0.00994 7.64465 0.01483C6.97788 0.0227318 6.31268 0.0818063 5.65483 0.19154C4.9979 0.303663 4.36155 0.515046 3.7673 0.81854C3.17378 1.1246 2.63146 1.5223 2.16002 1.9972C1.68611 2.47077 1.29106 3.01815 0.990078 3.61829C0.688263 4.21724 0.478984 4.85907 0.369468 5.52161C0.258911 6.18332 0.199419 6.85265 0.191527 7.52361C0.182312 7.83021 0.181339 8.13783 0.176483 8.44447V31.5587C0.181339 31.8692 0.182312 32.17 0.191527 32.4806C0.199422 33.1516 0.258913 33.8209 0.369468 34.4825C0.478681 35.1455 0.687973 35.7877 0.990078 36.3868C1.29093 36.985 1.68603 37.5302 2.16002 38.0011C2.62967 38.4781 3.17234 38.8761 3.7673 39.1798C4.36155 39.4841 4.99783 39.6968 5.65483 39.8106C6.31279 39.9195 6.97793 39.9786 7.64465 39.9874C7.95157 39.9942 8.25315 39.9981 8.55715 39.9981C8.9203 40.0001 9.28009 40.0001 9.64419 40.0001H109.538C109.895 40.0001 110.257 40.0001 110.614 39.9981C110.917 39.9981 111.227 39.9942 111.529 39.9874C112.195 39.9791 112.859 39.92 113.515 39.8106C114.175 39.696 114.813 39.4834 115.41 39.1798C116.005 38.8759 116.547 38.478 117.016 38.0011C117.489 37.5284 117.885 36.9836 118.189 36.3868C118.489 35.7872 118.696 35.1451 118.804 34.4825C118.915 33.8208 118.976 33.1516 118.988 32.4806C118.992 32.17 118.992 31.8692 118.992 31.5587C119 31.1954 119 30.8341 119 30.4649V9.53626C119 9.17005 119 8.80677 118.992 8.44447C118.992 8.13783 118.992 7.83021 118.988 7.52357C118.976 6.85255 118.915 6.18337 118.804 5.52157C118.696 4.85941 118.489 4.21763 118.189 3.61825C117.576 2.41533 116.604 1.43616 115.41 0.81845C114.813 0.515697 114.174 0.30437 113.515 0.19145C112.859 0.0812328 112.195 0.0221378 111.529 0.01469C111.227 0.00981 110.917 0.00395 110.614 0.002C110.257 0 109.895 0.00013 109.538 0.00013Z" fill="#A6A6A6"/>
<path d="M8.562 39.125C8.25946 39.125 7.96423 39.1211 7.66406 39.1143C7.04224 39.1061 6.42188 39.0516 5.80805 38.9512C5.23569 38.8519 4.68123 38.6673 4.16295 38.4033C3.64942 38.1415 3.18105 37.7983 2.77576 37.3867C2.36461 36.98 2.02231 36.5082 1.76242 35.9902C1.49967 35.4688 1.31783 34.9099 1.22323 34.333C1.12108 33.7131 1.06581 33.0863 1.0579 32.458C1.05161 32.2471 1.04337 31.5449 1.04337 31.5449V8.44434C1.04337 8.44434 1.05214 7.75293 1.05795 7.5498C1.06552 6.92248 1.12047 6.29665 1.22232 5.67773C1.31709 5.09925 1.49907 4.53875 1.76196 4.01563C2.0209 3.49794 2.3613 3.02586 2.76997 2.61768C3.17819 2.20562 3.64806 1.8606 4.16246 1.59521C4.67955 1.33209 5.23296 1.14873 5.80417 1.05127C6.42001 0.949836 7.04253 0.894996 7.6665 0.88721L8.56249 0.875H110.609L111.516 0.8877C112.134 0.895099 112.751 0.94945 113.361 1.05029C113.938 1.14898 114.497 1.33362 115.02 1.59814C116.051 2.13299 116.889 2.97916 117.418 4.01807C117.677 4.53758 117.856 5.09351 117.95 5.66699C118.053 6.29099 118.111 6.92174 118.122 7.5542C118.125 7.8374 118.125 8.1416 118.125 8.44434C118.133 8.81934 118.133 9.17627 118.133 9.53613V30.4648C118.133 30.8281 118.133 31.1826 118.125 31.54C118.125 31.8652 118.125 32.1631 118.121 32.4697C118.11 33.0909 118.053 33.7104 117.952 34.3232C117.859 34.9043 117.678 35.4675 117.416 35.9932C117.154 36.5056 116.813 36.9733 116.407 37.3789C116.001 37.7927 115.532 38.1379 115.017 38.4014C114.496 38.6674 113.938 38.8527 113.361 38.9512C112.747 39.0522 112.127 39.1067 111.505 39.1143C111.214 39.1211 110.91 39.125 110.614 39.125L109.538 39.127L8.562 39.125Z" fill="black"/>
<path d="M24.7714 20.3006C24.7821 19.4659 25.0022 18.6475 25.4113 17.9216C25.8205 17.1956 26.4053 16.5857 27.1114 16.1485C26.6628 15.5034 26.0711 14.9724 25.3831 14.5979C24.6951 14.2233 23.9299 14.0155 23.1483 13.9908C21.4808 13.8146 19.8643 14.9957 19.0146 14.9957C18.1485 14.9957 16.8402 14.0083 15.4314 14.0375C14.5202 14.0672 13.6322 14.334 12.8538 14.8121C12.0754 15.2901 11.4333 15.9631 10.9899 16.7654C9.06953 20.1138 10.502 25.0349 12.3416 27.7415C13.262 29.0668 14.3376 30.5473 15.7451 30.4948C17.1225 30.4372 17.6369 29.6103 19.2994 29.6103C20.9465 29.6103 21.4291 30.4948 22.8652 30.4614C24.3431 30.4372 25.2743 29.1302 26.1624 27.7923C26.8237 26.8479 27.3325 25.8042 27.6701 24.6997C26.8115 24.334 26.0787 23.7218 25.5633 22.9395C25.0478 22.1572 24.7724 21.2394 24.7714 20.3006Z" fill="white"/>
<path d="M22.0589 12.2108C22.8648 11.2366 23.2618 9.98445 23.1656 8.72021C21.9345 8.85044 20.7973 9.44299 19.9806 10.3798C19.5813 10.8375 19.2754 11.3699 19.0806 11.9467C18.8857 12.5235 18.8056 13.1333 18.8449 13.7412C19.4607 13.7476 20.0699 13.6132 20.6266 13.3481C21.1833 13.083 21.6731 12.6942 22.0589 12.2108Z" fill="white"/>
<path d="M42.1816 27.1396H37.4815L36.3527 30.496H34.3619L38.8138 18.078H40.8822L45.3341 30.496H43.3094L42.1816 27.1396ZM37.9683 25.5907H41.6939L39.8573 20.1435H39.8059L37.9683 25.5907Z" fill="white"/>
<path d="M54.9487 25.9697C54.9487 28.7832 53.4534 30.5908 51.197 30.5908C50.6253 30.6209 50.0569 30.4883 49.5566 30.2082C49.0564 29.928 48.6445 29.5117 48.3683 29.0068H48.3256V33.4912H46.4803V21.4423H48.2665V22.9482H48.3004C48.5894 22.4457 49.0081 22.0316 49.5122 21.7497C50.0163 21.4679 50.5868 21.3289 51.163 21.3476C53.4447 21.3476 54.9487 23.164 54.9487 25.9697ZM53.052 25.9697C53.052 24.1367 52.1114 22.9316 50.6762 22.9316C49.2663 22.9316 48.3179 24.1621 48.3179 25.9697C48.3179 27.7939 49.2663 29.0156 50.6762 29.0156C52.1114 29.0156 53.052 27.8193 53.052 25.9697Z" fill="white"/>
<path d="M64.8436 25.9697C64.8436 28.7832 63.3483 30.5908 61.0918 30.5908C60.5202 30.6209 59.9517 30.4883 59.4514 30.2081C58.9512 29.928 58.5394 29.5117 58.2632 29.0068H58.2205V33.4912H56.3751V21.4423H58.1613V22.9482H58.1952C58.4842 22.4457 58.9029 22.0315 59.407 21.7497C59.9111 21.4679 60.4816 21.3289 61.0578 21.3476C63.3396 21.3476 64.8436 23.164 64.8436 25.9697ZM62.9468 25.9697C62.9468 24.1367 62.0062 22.9316 60.571 22.9316C59.1611 22.9316 58.2127 24.1621 58.2127 25.9697C58.2127 27.7939 59.1611 29.0156 60.571 29.0156C62.0062 29.0156 62.9468 27.8193 62.9468 25.9697Z" fill="white"/>
<path d="M70.8896 27.165C71.0264 28.3964 72.2143 29.205 73.8375 29.205C75.3929 29.205 76.512 28.3964 76.512 27.286C76.512 26.3221 75.837 25.745 74.239 25.3495L72.6409 24.9618C70.3767 24.411 69.3255 23.3446 69.3255 21.6141C69.3255 19.4716 71.1796 17.9999 73.8123 17.9999C76.4179 17.9999 78.2041 19.4716 78.2642 21.6141H76.4014C76.2899 20.3749 75.2727 19.6268 73.7861 19.6268C72.2995 19.6268 71.2823 20.3837 71.2823 21.4852C71.2823 22.3632 71.932 22.8798 73.5214 23.2752L74.8799 23.6112C77.4099 24.2137 78.461 25.2372 78.461 27.0536C78.461 29.3768 76.6234 30.8319 73.7008 30.8319C70.9662 30.8319 69.1199 29.411 69.0006 27.1649L70.8896 27.165Z" fill="white"/>
<path d="M82.9373 19.2997V21.4423H84.6468V22.9139H82.9373V27.9052C82.9373 28.6805 83.2796 29.0419 84.0311 29.0419C84.234 29.0383 84.4367 29.024 84.6381 28.9989V30.4618C84.3002 30.5253 83.9568 30.5541 83.6131 30.5477C81.793 30.5477 81.0832 29.8592 81.0832 28.1034V22.9139H79.776V21.4423H81.0832V19.2997H82.9373Z" fill="white"/>
<path d="M85.637 25.9696C85.637 23.121 87.3029 21.3309 89.9007 21.3309C92.5073 21.3309 94.1655 23.1209 94.1655 25.9696C94.1655 28.8261 92.516 30.6083 89.9007 30.6083C87.2864 30.6083 85.637 28.826 85.637 25.9696ZM92.2852 25.9696C92.2852 24.0155 91.396 22.8622 89.9007 22.8622C88.4055 22.8622 87.5172 24.0243 87.5172 25.9696C87.5172 27.9315 88.4055 29.0761 89.9007 29.0761C91.396 29.0761 92.2852 27.9315 92.2852 25.9696Z" fill="white"/>
<path d="M95.6869 21.4423H97.4469V22.9833H97.4896C97.6087 22.502 97.8887 22.0766 98.2825 21.7788C98.6763 21.4809 99.1599 21.3286 99.6521 21.3475C99.8647 21.3468 100.077 21.37 100.284 21.4169V23.1551C100.016 23.0725 99.7358 23.0346 99.4552 23.0428C99.1871 23.0319 98.9198 23.0795 98.6718 23.1824C98.4237 23.2853 98.2006 23.441 98.0179 23.6389C97.8353 23.8368 97.6973 24.0721 97.6134 24.3288C97.5296 24.5855 97.5019 24.8574 97.5323 25.1258V30.496H95.6869L95.6869 21.4423Z" fill="white"/>
<path d="M108.792 27.8368C108.544 29.4803 106.955 30.6083 104.921 30.6083C102.306 30.6083 100.683 28.8436 100.683 26.0126C100.683 23.1727 102.315 21.3309 104.844 21.3309C107.331 21.3309 108.895 23.0516 108.895 25.7968V26.4335H102.546V26.5458C102.516 26.879 102.558 27.2146 102.667 27.5305C102.777 27.8463 102.951 28.1351 103.18 28.3777C103.409 28.6202 103.686 28.811 103.994 28.9373C104.301 29.0636 104.632 29.1225 104.964 29.1102C105.4 29.1514 105.838 29.0497 106.212 28.8202C106.586 28.5908 106.876 28.2459 107.04 27.8368L108.792 27.8368ZM102.554 25.1346H107.049C107.065 24.835 107.02 24.5352 106.916 24.254C106.813 23.9728 106.652 23.7163 106.445 23.5005C106.238 23.2847 105.989 23.1144 105.713 23.0002C105.438 22.886 105.142 22.8303 104.844 22.8368C104.543 22.835 104.245 22.8931 103.967 23.0079C103.689 23.1226 103.437 23.2917 103.224 23.5053C103.011 23.7189 102.842 23.9729 102.727 24.2526C102.612 24.5322 102.554 24.832 102.554 25.1346Z" fill="white"/>
<path d="M36.6567 11.2534H37.449C37.5854 11.2705 37.7238 11.259 37.8555 11.2195C37.9873 11.1801 38.1094 11.1136 38.2144 11.0242C38.3194 10.9349 38.4048 10.8246 38.4653 10.7003C38.5258 10.576 38.5601 10.4405 38.5661 10.3022C38.5661 9.75193 38.1549 9.39646 37.4577 9.39646C37.318 9.3768 37.1758 9.38553 37.0394 9.42214C36.9031 9.45875 36.7755 9.52249 36.664 9.60961C36.5526 9.69672 36.4596 9.80544 36.3905 9.92935C36.3215 10.0533 36.2778 10.1898 36.2621 10.331H35.3922C35.4072 10.0747 35.4744 9.82428 35.5896 9.59527C35.7049 9.36626 35.8657 9.16359 36.0621 8.99989C36.2585 8.83618 36.4863 8.71494 36.7312 8.64372C36.9761 8.5725 37.233 8.55282 37.4858 8.58591C38.6524 8.58591 39.4737 9.24362 39.4737 10.1904C39.4765 10.5076 39.3711 10.8161 39.1752 11.0645C38.9793 11.3129 38.7048 11.486 38.3974 11.5551V11.6255C38.7618 11.6417 39.105 11.8027 39.3519 12.073C39.5989 12.3434 39.7295 12.7013 39.7152 13.0683C39.6882 13.3322 39.6092 13.588 39.4828 13.8208C39.3564 14.0535 39.1851 14.2585 38.979 14.4237C38.7729 14.5889 38.5361 14.7111 38.2826 14.7829C38.029 14.8548 37.7637 14.875 37.5023 14.8423C37.2404 14.8782 36.9739 14.8607 36.7188 14.7907C36.4637 14.7208 36.2252 14.5998 36.0175 14.4351C35.8099 14.2703 35.6372 14.0651 35.51 13.8317C35.3827 13.5983 35.3035 13.3415 35.2769 13.0766H36.1603C36.2136 13.6474 36.7343 14.0156 37.5023 14.0156C38.2703 14.0156 38.7717 13.6021 38.7717 13.0191C38.7717 12.4277 38.2994 12.0635 37.4742 12.0635H36.6567V11.2534Z" fill="white"/>
<path d="M40.7188 13.4243C40.7188 12.6138 41.3191 12.1465 42.3818 12.0801L43.593 12.0098V11.6211C43.593 11.1455 43.2817 10.877 42.6776 10.877C42.185 10.877 41.8446 11.0591 41.7457 11.3774H40.8914C40.9816 10.604 41.705 10.1079 42.7193 10.1079C43.8403 10.1079 44.4725 10.6699 44.4725 11.6211V14.6978H43.6221V14.0649H43.5523C43.4106 14.2919 43.2116 14.477 42.9756 14.6012C42.7397 14.7254 42.4752 14.7843 42.2092 14.7719C42.0215 14.7916 41.8318 14.7714 41.6523 14.7127C41.4728 14.654 41.3076 14.5581 41.1671 14.4311C41.0267 14.3042 40.9143 14.149 40.837 13.9756C40.7598 13.8021 40.7196 13.6144 40.7188 13.4243ZM43.593 13.0395V12.6631L42.5011 12.7334C41.8853 12.7749 41.606 12.9858 41.606 13.3828C41.606 13.7881 41.9551 14.0239 42.4352 14.0239C42.5758 14.0383 42.7179 14.024 42.853 13.9819C42.988 13.9398 43.1133 13.8708 43.2213 13.7789C43.3293 13.6871 43.4179 13.5743 43.4818 13.4473C43.5456 13.3202 43.5835 13.1816 43.593 13.0395Z" fill="white"/>
<path d="M46.8144 10.9429V14.6978H45.9319V10.1948H48.876V10.9428L46.8144 10.9429Z" fill="white"/>
<path d="M54.2239 12.4443C54.2239 13.875 53.5053 14.7719 52.3766 14.7719C52.0995 14.791 51.8228 14.7299 51.579 14.5959C51.3353 14.4619 51.1346 14.2606 51.0006 14.0156H50.9308V16.1948H50.0483V10.1948H50.8978V10.939H50.9637C51.1001 10.6854 51.3034 10.4747 51.5512 10.3302C51.799 10.1857 52.0816 10.113 52.3679 10.1201C53.5053 10.1201 54.2239 11.0131 54.2239 12.4443ZM53.3162 12.4443C53.3162 11.4931 52.8692 10.9184 52.1216 10.9184C51.3788 10.9184 50.9143 11.5053 50.9143 12.4482C50.9143 13.3867 51.3788 13.9741 52.1177 13.9741C52.8692 13.9741 53.3162 13.3994 53.3162 12.4443Z" fill="white"/>
<path d="M55.3992 16.3106V15.5454C55.4946 15.5576 55.5909 15.5632 55.6871 15.562C55.8751 15.576 56.0616 15.5197 56.2109 15.4037C56.3602 15.2877 56.4616 15.1203 56.4958 14.9336L56.5618 14.7144L54.9434 10.1948H55.9043L57.0253 13.7715H57.0952L58.2123 10.1948H59.148L57.4811 14.8838C57.0991 15.9795 56.6763 16.3311 55.7647 16.3311C55.691 16.3311 55.4816 16.3228 55.3992 16.3106Z" fill="white"/>
<path d="M59.8355 13.4199H60.7141C60.8004 13.8169 61.1699 14.0239 61.6867 14.0239C62.2744 14.0239 62.6351 13.7632 62.6351 13.3579C62.6351 12.9238 62.3112 12.7168 61.6867 12.7168H61.0176V12.0264H61.6751C62.2084 12.0264 62.4799 11.8198 62.4799 11.4434C62.4799 11.1128 62.2171 10.8604 61.6751 10.8604C61.1815 10.8604 60.8208 11.0713 60.7635 11.4268H59.9131C59.9767 11.0183 60.1969 10.6513 60.5264 10.4047C60.8559 10.158 61.2684 10.0515 61.6751 10.1079C62.7379 10.1079 63.3459 10.5918 63.3459 11.3526C63.3508 11.5644 63.2834 11.7715 63.1549 11.9393C63.0264 12.1071 62.8446 12.2254 62.6399 12.2744V12.3447C62.8836 12.3764 63.1073 12.4971 63.2686 12.6838C63.4298 12.8706 63.5174 13.1105 63.5146 13.3579C63.5146 14.2139 62.7912 14.7803 61.6867 14.7803C60.7102 14.7803 59.917 14.3296 59.8355 13.4199Z" fill="white"/>
<path d="M64.7854 14.6978V10.1948H65.6601V13.292H65.7299L67.7905 10.1948H68.6652V14.6978H67.7905V11.584H67.7246L65.6601 14.6978L64.7854 14.6978Z" fill="white"/>
<path d="M73.4836 10.9428H72.0756V14.6977H71.1922V10.9428H69.7841V10.1948H73.4836V10.9428Z" fill="white"/>
<path d="M78.2371 13.4819C78.1169 13.8934 77.8569 14.2493 77.5026 14.4874C77.1483 14.7255 76.7222 14.8307 76.2987 14.7846C76.0041 14.7925 75.7114 14.7356 75.4408 14.6181C75.1702 14.5006 74.9282 14.3252 74.7317 14.104C74.5352 13.8829 74.3888 13.6213 74.3027 13.3375C74.2166 13.0537 74.1929 12.7544 74.2332 12.4604C74.194 12.1655 74.2181 11.8656 74.304 11.5809C74.3899 11.2962 74.5355 11.0335 74.731 10.8104C74.9265 10.5873 75.1673 10.4092 75.4371 10.2879C75.7069 10.1667 75.9994 10.1053 76.2948 10.1079C77.5389 10.1079 78.2904 10.9639 78.2904 12.3779V12.688H75.1331V12.7378C75.1191 12.903 75.1396 13.0694 75.1933 13.2263C75.247 13.3831 75.3327 13.5269 75.4448 13.6484C75.557 13.7698 75.6931 13.8664 75.8445 13.9317C75.9959 13.997 76.1592 14.0298 76.3239 14.0278C76.5348 14.0532 76.7485 14.0148 76.9378 13.9176C77.127 13.8204 77.2833 13.6687 77.3867 13.4819L78.2371 13.4819ZM75.1331 12.0307H77.3905C77.4017 11.8797 77.3813 11.7279 77.3308 11.5853C77.2803 11.4426 77.2007 11.3122 77.0971 11.2023C76.9936 11.0925 76.8684 11.0056 76.7295 10.9474C76.5907 10.8892 76.4413 10.8609 76.2909 10.8642C76.1382 10.8621 75.9867 10.8909 75.8453 10.9488C75.7038 11.0067 75.5753 11.0925 75.4674 11.2013C75.3595 11.31 75.2743 11.4394 75.2169 11.5819C75.1594 11.7244 75.1309 11.877 75.1331 12.0307Z" fill="white"/>
<path d="M81.9782 10.1948H83.9942C84.8689 10.1948 85.3819 10.6411 85.3819 11.3398C85.3832 11.5615 85.3089 11.777 85.1714 11.9501C85.0339 12.1233 84.8415 12.2436 84.6265 12.291V12.3613C84.8876 12.3779 85.1324 12.4949 85.3104 12.6881C85.4883 12.8813 85.5857 13.1359 85.5826 13.3994C85.5826 14.185 84.9959 14.6977 84.0146 14.6977H81.9782V10.1948ZM82.8529 10.877V12.043H83.7276C84.2609 12.043 84.5159 11.8364 84.5159 11.4556C84.5159 11.1045 84.2939 10.8769 83.8255 10.8769L82.8529 10.877ZM82.8529 12.6963V14.0156H83.8992C84.4209 14.0156 84.7002 13.7837 84.7002 13.3579C84.7002 12.9072 84.3841 12.6963 83.7887 12.6963L82.8529 12.6963Z" fill="white"/>
</g>
<defs>
<clipPath id="clip0_0_277">
<rect width="118.824" height="40" fill="white" transform="translate(0.176483)"/>
</clipPath>
</defs>
</svg>
