<svg width="188" height="188" viewBox="0 0 188 188" fill="none" xmlns="http://www.w3.org/2000/svg">
<rect width="188" height="188" rx="15" fill="white"/>
<path d="M11.394 11.3939H17.0909V17.0909H11.394V11.3939Z" fill="black"/>
<path d="M17.0909 11.3939H22.7879V17.0909H17.0909V11.3939Z" fill="black"/>
<path d="M22.7879 11.3939H28.4849V17.0909H22.7879V11.3939Z" fill="black"/>
<path d="M28.4849 11.3939H34.1818V17.0909H28.4849V11.3939Z" fill="black"/>
<path d="M34.1818 11.3939H39.8788V17.0909H34.1818V11.3939Z" fill="black"/>
<path d="M39.8788 11.3939H45.5758V17.0909H39.8788V11.3939Z" fill="black"/>
<path d="M45.5758 11.3939H51.2727V17.0909H45.5758V11.3939Z" fill="black"/>
<path d="M56.9697 11.3939H62.6667V17.0909H56.9697V11.3939Z" fill="black"/>
<path d="M62.6667 11.3939H68.3636V17.0909H62.6667V11.3939Z" fill="black"/>
<path d="M96.8485 11.3939H102.545V17.0909H96.8485V11.3939Z" fill="black"/>
<path d="M125.333 11.3939H131.03V17.0909H125.333V11.3939Z" fill="black"/>
<path d="M136.727 11.3939H142.424V17.0909H136.727V11.3939Z" fill="black"/>
<path d="M142.424 11.3939H148.121V17.0909H142.424V11.3939Z" fill="black"/>
<path d="M148.121 11.3939H153.818V17.0909H148.121V11.3939Z" fill="black"/>
<path d="M153.818 11.3939H159.515V17.0909H153.818V11.3939Z" fill="black"/>
<path d="M159.515 11.3939H165.212V17.0909H159.515V11.3939Z" fill="black"/>
<path d="M165.212 11.3939H170.909V17.0909H165.212V11.3939Z" fill="black"/>
<path d="M170.909 11.3939H176.606V17.0909H170.909V11.3939Z" fill="black"/>
<path d="M11.394 17.0909H17.0909V22.7879H11.394V17.0909Z" fill="black"/>
<path d="M45.5758 17.0909H51.2727V22.7879H45.5758V17.0909Z" fill="black"/>
<path d="M56.9697 17.0909H62.6667V22.7879H56.9697V17.0909Z" fill="black"/>
<path d="M68.3636 17.0909H74.0606V22.7879H68.3636V17.0909Z" fill="black"/>
<path d="M74.0606 17.0909H79.7576V22.7879H74.0606V17.0909Z" fill="black"/>
<path d="M85.4546 17.0909H91.1515V22.7879H85.4546V17.0909Z" fill="black"/>
<path d="M102.545 17.0909H108.242V22.7879H102.545V17.0909Z" fill="black"/>
<path d="M125.333 17.0909H131.03V22.7879H125.333V17.0909Z" fill="black"/>
<path d="M136.727 17.0909H142.424V22.7879H136.727V17.0909Z" fill="black"/>
<path d="M170.909 17.0909H176.606V22.7879H170.909V17.0909Z" fill="black"/>
<path d="M11.394 22.7879H17.0909V28.4848H11.394V22.7879Z" fill="black"/>
<path d="M22.7879 22.7879H28.4849V28.4848H22.7879V22.7879Z" fill="black"/>
<path d="M28.4849 22.7879H34.1818V28.4848H28.4849V22.7879Z" fill="black"/>
<path d="M34.1818 22.7879H39.8788V28.4848H34.1818V22.7879Z" fill="black"/>
<path d="M45.5758 22.7879H51.2727V28.4848H45.5758V22.7879Z" fill="black"/>
<path d="M68.3636 22.7879H74.0606V28.4848H68.3636V22.7879Z" fill="black"/>
<path d="M85.4546 22.7879H91.1515V28.4848H85.4546V22.7879Z" fill="black"/>
<path d="M108.242 22.7879H113.939V28.4848H108.242V22.7879Z" fill="black"/>
<path d="M136.727 22.7879H142.424V28.4848H136.727V22.7879Z" fill="black"/>
<path d="M148.121 22.7879H153.818V28.4848H148.121V22.7879Z" fill="black"/>
<path d="M153.818 22.7879H159.515V28.4848H153.818V22.7879Z" fill="black"/>
<path d="M159.515 22.7879H165.212V28.4848H159.515V22.7879Z" fill="black"/>
<path d="M170.909 22.7879H176.606V28.4848H170.909V22.7879Z" fill="black"/>
<path d="M11.394 28.4848H17.0909V34.1818H11.394V28.4848Z" fill="black"/>
<path d="M22.7879 28.4848H28.4849V34.1818H22.7879V28.4848Z" fill="black"/>
<path d="M28.4849 28.4848H34.1818V34.1818H28.4849V28.4848Z" fill="black"/>
<path d="M34.1818 28.4848H39.8788V34.1818H34.1818V28.4848Z" fill="black"/>
<path d="M45.5758 28.4848H51.2727V34.1818H45.5758V28.4848Z" fill="black"/>
<path d="M56.9697 28.4848H62.6667V34.1818H56.9697V28.4848Z" fill="black"/>
<path d="M68.3636 28.4848H74.0606V34.1818H68.3636V28.4848Z" fill="black"/>
<path d="M74.0606 28.4848H79.7576V34.1818H74.0606V28.4848Z" fill="black"/>
<path d="M91.1515 28.4848H96.8485V34.1818H91.1515V28.4848Z" fill="black"/>
<path d="M96.8485 28.4848H102.545V34.1818H96.8485V28.4848Z" fill="black"/>
<path d="M102.545 28.4848H108.242V34.1818H102.545V28.4848Z" fill="black"/>
<path d="M113.939 28.4848H119.636V34.1818H113.939V28.4848Z" fill="black"/>
<path d="M119.636 28.4848H125.333V34.1818H119.636V28.4848Z" fill="black"/>
<path d="M136.727 28.4848H142.424V34.1818H136.727V28.4848Z" fill="black"/>
<path d="M148.121 28.4848H153.818V34.1818H148.121V28.4848Z" fill="black"/>
<path d="M153.818 28.4848H159.515V34.1818H153.818V28.4848Z" fill="black"/>
<path d="M159.515 28.4848H165.212V34.1818H159.515V28.4848Z" fill="black"/>
<path d="M170.909 28.4848H176.606V34.1818H170.909V28.4848Z" fill="black"/>
<path d="M11.394 34.1818H17.0909V39.8788H11.394V34.1818Z" fill="black"/>
<path d="M22.7879 34.1818H28.4849V39.8788H22.7879V34.1818Z" fill="black"/>
<path d="M28.4849 34.1818H34.1818V39.8788H28.4849V34.1818Z" fill="black"/>
<path d="M34.1818 34.1818H39.8788V39.8788H34.1818V34.1818Z" fill="black"/>
<path d="M45.5758 34.1818H51.2727V39.8788H45.5758V34.1818Z" fill="black"/>
<path d="M56.9697 34.1818H62.6667V39.8788H56.9697V34.1818Z" fill="black"/>
<path d="M68.3636 34.1818H74.0606V39.8788H68.3636V34.1818Z" fill="black"/>
<path d="M74.0606 34.1818H79.7576V39.8788H74.0606V34.1818Z" fill="black"/>
<path d="M91.1515 34.1818H96.8485V39.8788H91.1515V34.1818Z" fill="black"/>
<path d="M108.242 34.1818H113.939V39.8788H108.242V34.1818Z" fill="black"/>
<path d="M113.939 34.1818H119.636V39.8788H113.939V34.1818Z" fill="black"/>
<path d="M136.727 34.1818H142.424V39.8788H136.727V34.1818Z" fill="black"/>
<path d="M148.121 34.1818H153.818V39.8788H148.121V34.1818Z" fill="black"/>
<path d="M153.818 34.1818H159.515V39.8788H153.818V34.1818Z" fill="black"/>
<path d="M159.515 34.1818H165.212V39.8788H159.515V34.1818Z" fill="black"/>
<path d="M170.909 34.1818H176.606V39.8788H170.909V34.1818Z" fill="black"/>
<path d="M11.394 39.8788H17.0909V45.5757H11.394V39.8788Z" fill="black"/>
<path d="M45.5758 39.8788H51.2727V45.5757H45.5758V39.8788Z" fill="black"/>
<path d="M56.9697 39.8788H62.6667V45.5757H56.9697V39.8788Z" fill="black"/>
<path d="M79.7576 39.8788H85.4546V45.5757H79.7576V39.8788Z" fill="black"/>
<path d="M108.242 39.8788H113.939V45.5757H108.242V39.8788Z" fill="black"/>
<path d="M113.939 39.8788H119.636V45.5757H113.939V39.8788Z" fill="black"/>
<path d="M119.636 39.8788H125.333V45.5757H119.636V39.8788Z" fill="black"/>
<path d="M125.333 39.8788H131.03V45.5757H125.333V39.8788Z" fill="black"/>
<path d="M136.727 39.8788H142.424V45.5757H136.727V39.8788Z" fill="black"/>
<path d="M170.909 39.8788H176.606V45.5757H170.909V39.8788Z" fill="black"/>
<path d="M11.394 45.5757H17.0909V51.2727H11.394V45.5757Z" fill="black"/>
<path d="M17.0909 45.5757H22.7879V51.2727H17.0909V45.5757Z" fill="black"/>
<path d="M22.7879 45.5757H28.4849V51.2727H22.7879V45.5757Z" fill="black"/>
<path d="M28.4849 45.5757H34.1818V51.2727H28.4849V45.5757Z" fill="black"/>
<path d="M34.1818 45.5757H39.8788V51.2727H34.1818V45.5757Z" fill="black"/>
<path d="M39.8788 45.5757H45.5758V51.2727H39.8788V45.5757Z" fill="black"/>
<path d="M45.5758 45.5757H51.2727V51.2727H45.5758V45.5757Z" fill="black"/>
<path d="M56.9697 45.5757H62.6667V51.2727H56.9697V45.5757Z" fill="black"/>
<path d="M68.3636 45.5757H74.0606V51.2727H68.3636V45.5757Z" fill="black"/>
<path d="M79.7576 45.5757H85.4546V51.2727H79.7576V45.5757Z" fill="black"/>
<path d="M91.1515 45.5757H96.8485V51.2727H91.1515V45.5757Z" fill="black"/>
<path d="M102.545 45.5757H108.242V51.2727H102.545V45.5757Z" fill="black"/>
<path d="M113.939 45.5757H119.636V51.2727H113.939V45.5757Z" fill="black"/>
<path d="M125.333 45.5757H131.03V51.2727H125.333V45.5757Z" fill="black"/>
<path d="M136.727 45.5757H142.424V51.2727H136.727V45.5757Z" fill="black"/>
<path d="M142.424 45.5757H148.121V51.2727H142.424V45.5757Z" fill="black"/>
<path d="M148.121 45.5757H153.818V51.2727H148.121V45.5757Z" fill="black"/>
<path d="M153.818 45.5757H159.515V51.2727H153.818V45.5757Z" fill="black"/>
<path d="M159.515 45.5757H165.212V51.2727H159.515V45.5757Z" fill="black"/>
<path d="M165.212 45.5757H170.909V51.2727H165.212V45.5757Z" fill="black"/>
<path d="M170.909 45.5757H176.606V51.2727H170.909V45.5757Z" fill="black"/>
<path d="M68.3636 51.2727H74.0606V56.9697H68.3636V51.2727Z" fill="black"/>
<path d="M85.4546 51.2727H91.1515V56.9697H85.4546V51.2727Z" fill="black"/>
<path d="M91.1515 51.2727H96.8485V56.9697H91.1515V51.2727Z" fill="black"/>
<path d="M96.8485 51.2727H102.545V56.9697H96.8485V51.2727Z" fill="black"/>
<path d="M119.636 51.2727H125.333V56.9697H119.636V51.2727Z" fill="black"/>
<path d="M125.333 51.2727H131.03V56.9697H125.333V51.2727Z" fill="black"/>
<path d="M28.4849 56.9697H34.1818V62.6666H28.4849V56.9697Z" fill="black"/>
<path d="M45.5758 56.9697H51.2727V62.6666H45.5758V56.9697Z" fill="black"/>
<path d="M74.0606 56.9697H79.7576V62.6666H74.0606V56.9697Z" fill="black"/>
<path d="M79.7576 56.9697H85.4546V62.6666H79.7576V56.9697Z" fill="black"/>
<path d="M102.545 56.9697H108.242V62.6666H102.545V56.9697Z" fill="black"/>
<path d="M108.242 56.9697H113.939V62.6666H108.242V56.9697Z" fill="black"/>
<path d="M119.636 56.9697H125.333V62.6666H119.636V56.9697Z" fill="black"/>
<path d="M142.424 56.9697H148.121V62.6666H142.424V56.9697Z" fill="black"/>
<path d="M148.121 56.9697H153.818V62.6666H148.121V56.9697Z" fill="black"/>
<path d="M153.818 56.9697H159.515V62.6666H153.818V56.9697Z" fill="black"/>
<path d="M165.212 56.9697H170.909V62.6666H165.212V56.9697Z" fill="black"/>
<path d="M170.909 56.9697H176.606V62.6666H170.909V56.9697Z" fill="black"/>
<path d="M28.4849 62.6666H34.1818V68.3636H28.4849V62.6666Z" fill="black"/>
<path d="M39.8788 62.6666H45.5758V68.3636H39.8788V62.6666Z" fill="black"/>
<path d="M56.9697 62.6666H62.6667V68.3636H56.9697V62.6666Z" fill="black"/>
<path d="M62.6667 62.6666H68.3636V68.3636H62.6667V62.6666Z" fill="black"/>
<path d="M68.3636 62.6666H74.0606V68.3636H68.3636V62.6666Z" fill="black"/>
<path d="M85.4546 62.6666H91.1515V68.3636H85.4546V62.6666Z" fill="black"/>
<path d="M108.242 62.6666H113.939V68.3636H108.242V62.6666Z" fill="black"/>
<path d="M119.636 62.6666H125.333V68.3636H119.636V62.6666Z" fill="black"/>
<path d="M125.333 62.6666H131.03V68.3636H125.333V62.6666Z" fill="black"/>
<path d="M136.727 62.6666H142.424V68.3636H136.727V62.6666Z" fill="black"/>
<path d="M142.424 62.6666H148.121V68.3636H142.424V62.6666Z" fill="black"/>
<path d="M159.515 62.6666H165.212V68.3636H159.515V62.6666Z" fill="black"/>
<path d="M165.212 62.6666H170.909V68.3636H165.212V62.6666Z" fill="black"/>
<path d="M170.909 62.6666H176.606V68.3636H170.909V62.6666Z" fill="black"/>
<path d="M11.394 68.3636H17.0909V74.0606H11.394V68.3636Z" fill="black"/>
<path d="M17.0909 68.3636H22.7879V74.0606H17.0909V68.3636Z" fill="black"/>
<path d="M22.7879 68.3636H28.4849V74.0606H22.7879V68.3636Z" fill="black"/>
<path d="M34.1818 68.3636H39.8788V74.0606H34.1818V68.3636Z" fill="black"/>
<path d="M39.8788 68.3636H45.5758V74.0606H39.8788V68.3636Z" fill="black"/>
<path d="M45.5758 68.3636H51.2727V74.0606H45.5758V68.3636Z" fill="black"/>
<path d="M51.2727 68.3636H56.9697V74.0606H51.2727V68.3636Z" fill="black"/>
<path d="M56.9697 68.3636H62.6667V74.0606H56.9697V68.3636Z" fill="black"/>
<path d="M62.6667 68.3636H68.3636V74.0606H62.6667V68.3636Z" fill="black"/>
<path d="M74.0606 68.3636H79.7576V74.0606H74.0606V68.3636Z" fill="black"/>
<path d="M79.7576 68.3636H85.4546V74.0606H79.7576V68.3636Z" fill="black"/>
<path d="M91.1515 68.3636H96.8485V74.0606H91.1515V68.3636Z" fill="black"/>
<path d="M108.242 68.3636H113.939V74.0606H108.242V68.3636Z" fill="black"/>
<path d="M125.333 68.3636H131.03V74.0606H125.333V68.3636Z" fill="black"/>
<path d="M131.03 68.3636H136.727V74.0606H131.03V68.3636Z" fill="black"/>
<path d="M148.121 68.3636H153.818V74.0606H148.121V68.3636Z" fill="black"/>
<path d="M165.212 68.3636H170.909V74.0606H165.212V68.3636Z" fill="black"/>
<path d="M11.394 74.0606H17.0909V79.7576H11.394V74.0606Z" fill="black"/>
<path d="M17.0909 74.0606H22.7879V79.7576H17.0909V74.0606Z" fill="black"/>
<path d="M28.4849 74.0606H34.1818V79.7576H28.4849V74.0606Z" fill="black"/>
<path d="M39.8788 74.0606H45.5758V79.7576H39.8788V74.0606Z" fill="black"/>
<path d="M68.3636 74.0606H74.0606V79.7576H68.3636V74.0606Z" fill="black"/>
<path d="M79.7576 74.0606H85.4546V79.7576H79.7576V74.0606Z" fill="black"/>
<path d="M85.4546 74.0606H91.1515V79.7576H85.4546V74.0606Z" fill="black"/>
<path d="M108.242 74.0606H113.939V79.7576H108.242V74.0606Z" fill="black"/>
<path d="M113.939 74.0606H119.636V79.7576H113.939V74.0606Z" fill="black"/>
<path d="M136.727 74.0606H142.424V79.7576H136.727V74.0606Z" fill="black"/>
<path d="M142.424 74.0606H148.121V79.7576H142.424V74.0606Z" fill="black"/>
<path d="M148.121 74.0606H153.818V79.7576H148.121V74.0606Z" fill="black"/>
<path d="M159.515 74.0606H165.212V79.7576H159.515V74.0606Z" fill="black"/>
<path d="M22.7879 79.7576H28.4849V85.4545H22.7879V79.7576Z" fill="black"/>
<path d="M45.5758 79.7576H51.2727V85.4545H45.5758V79.7576Z" fill="black"/>
<path d="M51.2727 79.7576H56.9697V85.4545H51.2727V79.7576Z" fill="black"/>
<path d="M62.6667 79.7576H68.3636V85.4545H62.6667V79.7576Z" fill="black"/>
<path d="M68.3636 79.7576H74.0606V85.4545H68.3636V79.7576Z" fill="black"/>
<path d="M85.4546 79.7576H91.1515V85.4545H85.4546V79.7576Z" fill="black"/>
<path d="M96.8485 79.7576H102.545V85.4545H96.8485V79.7576Z" fill="black"/>
<path d="M119.636 79.7576H125.333V85.4545H119.636V79.7576Z" fill="black"/>
<path d="M125.333 79.7576H131.03V85.4545H125.333V79.7576Z" fill="black"/>
<path d="M131.03 79.7576H136.727V85.4545H131.03V79.7576Z" fill="black"/>
<path d="M136.727 79.7576H142.424V85.4545H136.727V79.7576Z" fill="black"/>
<path d="M153.818 79.7576H159.515V85.4545H153.818V79.7576Z" fill="black"/>
<path d="M34.1818 85.4545H39.8788V91.1515H34.1818V85.4545Z" fill="black"/>
<path d="M51.2727 85.4545H56.9697V91.1515H51.2727V85.4545Z" fill="black"/>
<path d="M68.3636 85.4545H74.0606V91.1515H68.3636V85.4545Z" fill="black"/>
<path d="M74.0606 85.4545H79.7576V91.1515H74.0606V85.4545Z" fill="black"/>
<path d="M91.1515 85.4545H96.8485V91.1515H91.1515V85.4545Z" fill="black"/>
<path d="M96.8485 85.4545H102.545V91.1515H96.8485V85.4545Z" fill="black"/>
<path d="M119.636 85.4545H125.333V91.1515H119.636V85.4545Z" fill="black"/>
<path d="M153.818 85.4545H159.515V91.1515H153.818V85.4545Z" fill="black"/>
<path d="M159.515 85.4545H165.212V91.1515H159.515V85.4545Z" fill="black"/>
<path d="M165.212 85.4545H170.909V91.1515H165.212V85.4545Z" fill="black"/>
<path d="M11.394 91.1515H17.0909V96.8485H11.394V91.1515Z" fill="black"/>
<path d="M22.7879 91.1515H28.4849V96.8485H22.7879V91.1515Z" fill="black"/>
<path d="M28.4849 91.1515H34.1818V96.8485H28.4849V91.1515Z" fill="black"/>
<path d="M39.8788 91.1515H45.5758V96.8485H39.8788V91.1515Z" fill="black"/>
<path d="M45.5758 91.1515H51.2727V96.8485H45.5758V91.1515Z" fill="black"/>
<path d="M51.2727 91.1515H56.9697V96.8485H51.2727V91.1515Z" fill="black"/>
<path d="M56.9697 91.1515H62.6667V96.8485H56.9697V91.1515Z" fill="black"/>
<path d="M62.6667 91.1515H68.3636V96.8485H62.6667V91.1515Z" fill="black"/>
<path d="M68.3636 91.1515H74.0606V96.8485H68.3636V91.1515Z" fill="black"/>
<path d="M74.0606 91.1515H79.7576V96.8485H74.0606V91.1515Z" fill="black"/>
<path d="M79.7576 91.1515H85.4546V96.8485H79.7576V91.1515Z" fill="black"/>
<path d="M102.545 91.1515H108.242V96.8485H102.545V91.1515Z" fill="black"/>
<path d="M108.242 91.1515H113.939V96.8485H108.242V91.1515Z" fill="black"/>
<path d="M113.939 91.1515H119.636V96.8485H113.939V91.1515Z" fill="black"/>
<path d="M125.333 91.1515H131.03V96.8485H125.333V91.1515Z" fill="black"/>
<path d="M136.727 91.1515H142.424V96.8485H136.727V91.1515Z" fill="black"/>
<path d="M148.121 91.1515H153.818V96.8485H148.121V91.1515Z" fill="black"/>
<path d="M159.515 91.1515H165.212V96.8485H159.515V91.1515Z" fill="black"/>
<path d="M170.909 91.1515H176.606V96.8485H170.909V91.1515Z" fill="black"/>
<path d="M28.4849 96.8485H34.1818V102.545H28.4849V96.8485Z" fill="black"/>
<path d="M39.8788 96.8485H45.5758V102.545H39.8788V96.8485Z" fill="black"/>
<path d="M51.2727 96.8485H56.9697V102.545H51.2727V96.8485Z" fill="black"/>
<path d="M56.9697 96.8485H62.6667V102.545H56.9697V96.8485Z" fill="black"/>
<path d="M62.6667 96.8485H68.3636V102.545H62.6667V96.8485Z" fill="black"/>
<path d="M79.7576 96.8485H85.4546V102.545H79.7576V96.8485Z" fill="black"/>
<path d="M113.939 96.8485H119.636V102.545H113.939V96.8485Z" fill="black"/>
<path d="M119.636 96.8485H125.333V102.545H119.636V96.8485Z" fill="black"/>
<path d="M125.333 96.8485H131.03V102.545H125.333V96.8485Z" fill="black"/>
<path d="M136.727 96.8485H142.424V102.545H136.727V96.8485Z" fill="black"/>
<path d="M142.424 96.8485H148.121V102.545H142.424V96.8485Z" fill="black"/>
<path d="M11.394 102.545H17.0909V108.242H11.394V102.545Z" fill="black"/>
<path d="M22.7879 102.545H28.4849V108.242H22.7879V102.545Z" fill="black"/>
<path d="M34.1818 102.545H39.8788V108.242H34.1818V102.545Z" fill="black"/>
<path d="M45.5758 102.545H51.2727V108.242H45.5758V102.545Z" fill="black"/>
<path d="M51.2727 102.545H56.9697V108.242H51.2727V102.545Z" fill="black"/>
<path d="M62.6667 102.545H68.3636V108.242H62.6667V102.545Z" fill="black"/>
<path d="M74.0606 102.545H79.7576V108.242H74.0606V102.545Z" fill="black"/>
<path d="M79.7576 102.545H85.4546V108.242H79.7576V102.545Z" fill="black"/>
<path d="M91.1515 102.545H96.8485V108.242H91.1515V102.545Z" fill="black"/>
<path d="M96.8485 102.545H102.545V108.242H96.8485V102.545Z" fill="black"/>
<path d="M108.242 102.545H113.939V108.242H108.242V102.545Z" fill="black"/>
<path d="M125.333 102.545H131.03V108.242H125.333V102.545Z" fill="black"/>
<path d="M165.212 102.545H170.909V108.242H165.212V102.545Z" fill="black"/>
<path d="M170.909 102.545H176.606V108.242H170.909V102.545Z" fill="black"/>
<path d="M56.9697 108.242H62.6667V113.939H56.9697V108.242Z" fill="black"/>
<path d="M62.6667 108.242H68.3636V113.939H62.6667V108.242Z" fill="black"/>
<path d="M79.7576 108.242H85.4546V113.939H79.7576V108.242Z" fill="black"/>
<path d="M85.4546 108.242H91.1515V113.939H85.4546V108.242Z" fill="black"/>
<path d="M113.939 108.242H119.636V113.939H113.939V108.242Z" fill="black"/>
<path d="M119.636 108.242H125.333V113.939H119.636V108.242Z" fill="black"/>
<path d="M125.333 108.242H131.03V113.939H125.333V108.242Z" fill="black"/>
<path d="M136.727 108.242H142.424V113.939H136.727V108.242Z" fill="black"/>
<path d="M142.424 108.242H148.121V113.939H142.424V108.242Z" fill="black"/>
<path d="M159.515 108.242H165.212V113.939H159.515V108.242Z" fill="black"/>
<path d="M165.212 108.242H170.909V113.939H165.212V108.242Z" fill="black"/>
<path d="M170.909 108.242H176.606V113.939H170.909V108.242Z" fill="black"/>
<path d="M11.394 113.939H17.0909V119.636H11.394V113.939Z" fill="black"/>
<path d="M22.7879 113.939H28.4849V119.636H22.7879V113.939Z" fill="black"/>
<path d="M45.5758 113.939H51.2727V119.636H45.5758V113.939Z" fill="black"/>
<path d="M56.9697 113.939H62.6667V119.636H56.9697V113.939Z" fill="black"/>
<path d="M68.3636 113.939H74.0606V119.636H68.3636V113.939Z" fill="black"/>
<path d="M85.4546 113.939H91.1515V119.636H85.4546V113.939Z" fill="black"/>
<path d="M91.1515 113.939H96.8485V119.636H91.1515V113.939Z" fill="black"/>
<path d="M108.242 113.939H113.939V119.636H108.242V113.939Z" fill="black"/>
<path d="M125.333 113.939H131.03V119.636H125.333V113.939Z" fill="black"/>
<path d="M136.727 113.939H142.424V119.636H136.727V113.939Z" fill="black"/>
<path d="M142.424 113.939H148.121V119.636H142.424V113.939Z" fill="black"/>
<path d="M165.212 113.939H170.909V119.636H165.212V113.939Z" fill="black"/>
<path d="M170.909 113.939H176.606V119.636H170.909V113.939Z" fill="black"/>
<path d="M34.1818 119.636H39.8788V125.333H34.1818V119.636Z" fill="black"/>
<path d="M68.3636 119.636H74.0606V125.333H68.3636V119.636Z" fill="black"/>
<path d="M79.7576 119.636H85.4546V125.333H79.7576V119.636Z" fill="black"/>
<path d="M85.4546 119.636H91.1515V125.333H85.4546V119.636Z" fill="black"/>
<path d="M91.1515 119.636H96.8485V125.333H91.1515V119.636Z" fill="black"/>
<path d="M96.8485 119.636H102.545V125.333H96.8485V119.636Z" fill="black"/>
<path d="M108.242 119.636H113.939V125.333H108.242V119.636Z" fill="black"/>
<path d="M113.939 119.636H119.636V125.333H113.939V119.636Z" fill="black"/>
<path d="M125.333 119.636H131.03V125.333H125.333V119.636Z" fill="black"/>
<path d="M131.03 119.636H136.727V125.333H131.03V119.636Z" fill="black"/>
<path d="M142.424 119.636H148.121V125.333H142.424V119.636Z" fill="black"/>
<path d="M153.818 119.636H159.515V125.333H153.818V119.636Z" fill="black"/>
<path d="M170.909 119.636H176.606V125.333H170.909V119.636Z" fill="black"/>
<path d="M11.394 125.333H17.0909V131.03H11.394V125.333Z" fill="black"/>
<path d="M22.7879 125.333H28.4849V131.03H22.7879V125.333Z" fill="black"/>
<path d="M34.1818 125.333H39.8788V131.03H34.1818V125.333Z" fill="black"/>
<path d="M39.8788 125.333H45.5758V131.03H39.8788V125.333Z" fill="black"/>
<path d="M45.5758 125.333H51.2727V131.03H45.5758V125.333Z" fill="black"/>
<path d="M51.2727 125.333H56.9697V131.03H51.2727V125.333Z" fill="black"/>
<path d="M62.6667 125.333H68.3636V131.03H62.6667V125.333Z" fill="black"/>
<path d="M79.7576 125.333H85.4546V131.03H79.7576V125.333Z" fill="black"/>
<path d="M102.545 125.333H108.242V131.03H102.545V125.333Z" fill="black"/>
<path d="M108.242 125.333H113.939V131.03H108.242V125.333Z" fill="black"/>
<path d="M125.333 125.333H131.03V131.03H125.333V125.333Z" fill="black"/>
<path d="M131.03 125.333H136.727V131.03H131.03V125.333Z" fill="black"/>
<path d="M136.727 125.333H142.424V131.03H136.727V125.333Z" fill="black"/>
<path d="M142.424 125.333H148.121V131.03H142.424V125.333Z" fill="black"/>
<path d="M148.121 125.333H153.818V131.03H148.121V125.333Z" fill="black"/>
<path d="M153.818 125.333H159.515V131.03H153.818V125.333Z" fill="black"/>
<path d="M159.515 125.333H165.212V131.03H159.515V125.333Z" fill="black"/>
<path d="M165.212 125.333H170.909V131.03H165.212V125.333Z" fill="black"/>
<path d="M170.909 125.333H176.606V131.03H170.909V125.333Z" fill="black"/>
<path d="M56.9697 131.03H62.6667V136.727H56.9697V131.03Z" fill="black"/>
<path d="M74.0606 131.03H79.7576V136.727H74.0606V131.03Z" fill="black"/>
<path d="M79.7576 131.03H85.4546V136.727H79.7576V131.03Z" fill="black"/>
<path d="M85.4546 131.03H91.1515V136.727H85.4546V131.03Z" fill="black"/>
<path d="M91.1515 131.03H96.8485V136.727H91.1515V131.03Z" fill="black"/>
<path d="M96.8485 131.03H102.545V136.727H96.8485V131.03Z" fill="black"/>
<path d="M113.939 131.03H119.636V136.727H113.939V131.03Z" fill="black"/>
<path d="M119.636 131.03H125.333V136.727H119.636V131.03Z" fill="black"/>
<path d="M125.333 131.03H131.03V136.727H125.333V131.03Z" fill="black"/>
<path d="M148.121 131.03H153.818V136.727H148.121V131.03Z" fill="black"/>
<path d="M153.818 131.03H159.515V136.727H153.818V131.03Z" fill="black"/>
<path d="M165.212 131.03H170.909V136.727H165.212V131.03Z" fill="black"/>
<path d="M170.909 131.03H176.606V136.727H170.909V131.03Z" fill="black"/>
<path d="M11.394 136.727H17.0909V142.424H11.394V136.727Z" fill="black"/>
<path d="M17.0909 136.727H22.7879V142.424H17.0909V136.727Z" fill="black"/>
<path d="M22.7879 136.727H28.4849V142.424H22.7879V136.727Z" fill="black"/>
<path d="M28.4849 136.727H34.1818V142.424H28.4849V136.727Z" fill="black"/>
<path d="M34.1818 136.727H39.8788V142.424H34.1818V136.727Z" fill="black"/>
<path d="M39.8788 136.727H45.5758V142.424H39.8788V136.727Z" fill="black"/>
<path d="M45.5758 136.727H51.2727V142.424H45.5758V136.727Z" fill="black"/>
<path d="M62.6667 136.727H68.3636V142.424H62.6667V136.727Z" fill="black"/>
<path d="M68.3636 136.727H74.0606V142.424H68.3636V136.727Z" fill="black"/>
<path d="M79.7576 136.727H85.4546V142.424H79.7576V136.727Z" fill="black"/>
<path d="M85.4546 136.727H91.1515V142.424H85.4546V136.727Z" fill="black"/>
<path d="M113.939 136.727H119.636V142.424H113.939V136.727Z" fill="black"/>
<path d="M125.333 136.727H131.03V142.424H125.333V136.727Z" fill="black"/>
<path d="M136.727 136.727H142.424V142.424H136.727V136.727Z" fill="black"/>
<path d="M148.121 136.727H153.818V142.424H148.121V136.727Z" fill="black"/>
<path d="M165.212 136.727H170.909V142.424H165.212V136.727Z" fill="black"/>
<path d="M11.394 142.424H17.0909V148.121H11.394V142.424Z" fill="black"/>
<path d="M45.5758 142.424H51.2727V148.121H45.5758V142.424Z" fill="black"/>
<path d="M62.6667 142.424H68.3636V148.121H62.6667V142.424Z" fill="black"/>
<path d="M68.3636 142.424H74.0606V148.121H68.3636V142.424Z" fill="black"/>
<path d="M85.4546 142.424H91.1515V148.121H85.4546V142.424Z" fill="black"/>
<path d="M91.1515 142.424H96.8485V148.121H91.1515V142.424Z" fill="black"/>
<path d="M102.545 142.424H108.242V148.121H102.545V142.424Z" fill="black"/>
<path d="M108.242 142.424H113.939V148.121H108.242V142.424Z" fill="black"/>
<path d="M125.333 142.424H131.03V148.121H125.333V142.424Z" fill="black"/>
<path d="M148.121 142.424H153.818V148.121H148.121V142.424Z" fill="black"/>
<path d="M159.515 142.424H165.212V148.121H159.515V142.424Z" fill="black"/>
<path d="M170.909 142.424H176.606V148.121H170.909V142.424Z" fill="black"/>
<path d="M11.394 148.121H17.0909V153.818H11.394V148.121Z" fill="black"/>
<path d="M22.7879 148.121H28.4849V153.818H22.7879V148.121Z" fill="black"/>
<path d="M28.4849 148.121H34.1818V153.818H28.4849V148.121Z" fill="black"/>
<path d="M34.1818 148.121H39.8788V153.818H34.1818V148.121Z" fill="black"/>
<path d="M45.5758 148.121H51.2727V153.818H45.5758V148.121Z" fill="black"/>
<path d="M68.3636 148.121H74.0606V153.818H68.3636V148.121Z" fill="black"/>
<path d="M79.7576 148.121H85.4546V153.818H79.7576V148.121Z" fill="black"/>
<path d="M85.4546 148.121H91.1515V153.818H85.4546V148.121Z" fill="black"/>
<path d="M91.1515 148.121H96.8485V153.818H91.1515V148.121Z" fill="black"/>
<path d="M108.242 148.121H113.939V153.818H108.242V148.121Z" fill="black"/>
<path d="M125.333 148.121H131.03V153.818H125.333V148.121Z" fill="black"/>
<path d="M131.03 148.121H136.727V153.818H131.03V148.121Z" fill="black"/>
<path d="M136.727 148.121H142.424V153.818H136.727V148.121Z" fill="black"/>
<path d="M142.424 148.121H148.121V153.818H142.424V148.121Z" fill="black"/>
<path d="M148.121 148.121H153.818V153.818H148.121V148.121Z" fill="black"/>
<path d="M153.818 148.121H159.515V153.818H153.818V148.121Z" fill="black"/>
<path d="M165.212 148.121H170.909V153.818H165.212V148.121Z" fill="black"/>
<path d="M11.394 153.818H17.0909V159.515H11.394V153.818Z" fill="black"/>
<path d="M22.7879 153.818H28.4849V159.515H22.7879V153.818Z" fill="black"/>
<path d="M28.4849 153.818H34.1818V159.515H28.4849V153.818Z" fill="black"/>
<path d="M34.1818 153.818H39.8788V159.515H34.1818V153.818Z" fill="black"/>
<path d="M45.5758 153.818H51.2727V159.515H45.5758V153.818Z" fill="black"/>
<path d="M56.9697 153.818H62.6667V159.515H56.9697V153.818Z" fill="black"/>
<path d="M68.3636 153.818H74.0606V159.515H68.3636V153.818Z" fill="black"/>
<path d="M108.242 153.818H113.939V159.515H108.242V153.818Z" fill="black"/>
<path d="M119.636 153.818H125.333V159.515H119.636V153.818Z" fill="black"/>
<path d="M136.727 153.818H142.424V159.515H136.727V153.818Z" fill="black"/>
<path d="M142.424 153.818H148.121V159.515H142.424V153.818Z" fill="black"/>
<path d="M148.121 153.818H153.818V159.515H148.121V153.818Z" fill="black"/>
<path d="M153.818 153.818H159.515V159.515H153.818V153.818Z" fill="black"/>
<path d="M170.909 153.818H176.606V159.515H170.909V153.818Z" fill="black"/>
<path d="M11.394 159.515H17.0909V165.212H11.394V159.515Z" fill="black"/>
<path d="M22.7879 159.515H28.4849V165.212H22.7879V159.515Z" fill="black"/>
<path d="M28.4849 159.515H34.1818V165.212H28.4849V159.515Z" fill="black"/>
<path d="M34.1818 159.515H39.8788V165.212H34.1818V159.515Z" fill="black"/>
<path d="M45.5758 159.515H51.2727V165.212H45.5758V159.515Z" fill="black"/>
<path d="M68.3636 159.515H74.0606V165.212H68.3636V159.515Z" fill="black"/>
<path d="M74.0606 159.515H79.7576V165.212H74.0606V159.515Z" fill="black"/>
<path d="M96.8485 159.515H102.545V165.212H96.8485V159.515Z" fill="black"/>
<path d="M102.545 159.515H108.242V165.212H102.545V159.515Z" fill="black"/>
<path d="M113.939 159.515H119.636V165.212H113.939V159.515Z" fill="black"/>
<path d="M148.121 159.515H153.818V165.212H148.121V159.515Z" fill="black"/>
<path d="M159.515 159.515H165.212V165.212H159.515V159.515Z" fill="black"/>
<path d="M170.909 159.515H176.606V165.212H170.909V159.515Z" fill="black"/>
<path d="M11.394 165.212H17.0909V170.909H11.394V165.212Z" fill="black"/>
<path d="M45.5758 165.212H51.2727V170.909H45.5758V165.212Z" fill="black"/>
<path d="M74.0606 165.212H79.7576V170.909H74.0606V165.212Z" fill="black"/>
<path d="M85.4546 165.212H91.1515V170.909H85.4546V165.212Z" fill="black"/>
<path d="M91.1515 165.212H96.8485V170.909H91.1515V165.212Z" fill="black"/>
<path d="M102.545 165.212H108.242V170.909H102.545V165.212Z" fill="black"/>
<path d="M108.242 165.212H113.939V170.909H108.242V165.212Z" fill="black"/>
<path d="M113.939 165.212H119.636V170.909H113.939V165.212Z" fill="black"/>
<path d="M125.333 165.212H131.03V170.909H125.333V165.212Z" fill="black"/>
<path d="M131.03 165.212H136.727V170.909H131.03V165.212Z" fill="black"/>
<path d="M142.424 165.212H148.121V170.909H142.424V165.212Z" fill="black"/>
<path d="M165.212 165.212H170.909V170.909H165.212V165.212Z" fill="black"/>
<path d="M11.394 170.909H17.0909V176.606H11.394V170.909Z" fill="black"/>
<path d="M17.0909 170.909H22.7879V176.606H17.0909V170.909Z" fill="black"/>
<path d="M22.7879 170.909H28.4849V176.606H22.7879V170.909Z" fill="black"/>
<path d="M28.4849 170.909H34.1818V176.606H28.4849V170.909Z" fill="black"/>
<path d="M34.1818 170.909H39.8788V176.606H34.1818V170.909Z" fill="black"/>
<path d="M39.8788 170.909H45.5758V176.606H39.8788V170.909Z" fill="black"/>
<path d="M45.5758 170.909H51.2727V176.606H45.5758V170.909Z" fill="black"/>
<path d="M62.6667 170.909H68.3636V176.606H62.6667V170.909Z" fill="black"/>
<path d="M79.7576 170.909H85.4546V176.606H79.7576V170.909Z" fill="black"/>
<path d="M85.4546 170.909H91.1515V176.606H85.4546V170.909Z" fill="black"/>
<path d="M102.545 170.909H108.242V176.606H102.545V170.909Z" fill="black"/>
<path d="M113.939 170.909H119.636V176.606H113.939V170.909Z" fill="black"/>
<path d="M125.333 170.909H131.03V176.606H125.333V170.909Z" fill="black"/>
<path d="M131.03 170.909H136.727V176.606H131.03V170.909Z" fill="black"/>
<path d="M136.727 170.909H142.424V176.606H136.727V170.909Z" fill="black"/>
<path d="M142.424 170.909H148.121V176.606H142.424V170.909Z" fill="black"/>
<path d="M148.121 170.909H153.818V176.606H148.121V170.909Z" fill="black"/>
<path d="M165.212 170.909H170.909V176.606H165.212V170.909Z" fill="black"/>
<path d="M17.0909 11.3939H11.394V17.0909M17.0909 11.3939V17.0909M17.0909 11.3939H22.7879M17.0909 17.0909H11.394M17.0909 17.0909H22.7879M17.0909 17.0909V22.7879M11.394 17.0909V22.7879M22.7879 11.3939V17.0909M22.7879 11.3939H28.4849M22.7879 17.0909H28.4849M28.4849 11.3939V17.0909M28.4849 11.3939H34.1818M28.4849 17.0909H34.1818M34.1818 11.3939V17.0909M34.1818 11.3939H39.8788M34.1818 17.0909H39.8788M39.8788 11.3939V17.0909M39.8788 11.3939H45.5758M39.8788 17.0909H45.5758M45.5758 11.3939V17.0909M45.5758 11.3939H51.2727V17.0909M45.5758 17.0909H51.2727M45.5758 17.0909V22.7879M51.2727 17.0909V22.7879M62.6667 11.3939H56.9697V17.0909M62.6667 11.3939V17.0909M62.6667 11.3939H68.3636V17.0909M62.6667 17.0909H56.9697M62.6667 17.0909H68.3636M62.6667 17.0909V22.7879H56.9697V17.0909M68.3636 17.0909H74.0606M68.3636 17.0909V22.7879M102.545 17.0909V11.3939H96.8485V17.0909H102.545ZM102.545 17.0909H108.242V22.7879M102.545 17.0909V22.7879H108.242M131.03 17.0909V11.3939H125.333V17.0909M131.03 17.0909H125.333M131.03 17.0909V22.7879H125.333V17.0909M142.424 11.3939H136.727V17.0909M142.424 11.3939V17.0909M142.424 11.3939H148.121M142.424 17.0909H136.727M142.424 17.0909H148.121M142.424 17.0909V22.7879M136.727 17.0909V22.7879M148.121 11.3939V17.0909M148.121 11.3939H153.818M148.121 17.0909H153.818M153.818 11.3939V17.0909M153.818 11.3939H159.515M153.818 17.0909H159.515M159.515 11.3939V17.0909M159.515 11.3939H165.212M159.515 17.0909H165.212M165.212 11.3939V17.0909M165.212 11.3939H170.909M165.212 17.0909H170.909M170.909 11.3939V17.0909M170.909 11.3939H176.606V17.0909M170.909 17.0909H176.606M170.909 17.0909V22.7879M176.606 17.0909V22.7879M17.0909 22.7879H11.394M17.0909 22.7879V28.4848M11.394 22.7879V28.4848M51.2727 22.7879H45.5758M51.2727 22.7879V28.4848M45.5758 22.7879V28.4848M74.0606 17.0909V22.7879M74.0606 17.0909H79.7576V22.7879H74.0606M74.0606 22.7879H68.3636M74.0606 22.7879V28.4848M68.3636 22.7879V28.4848M91.1515 22.7879V17.0909H85.4546V22.7879M91.1515 22.7879H85.4546M91.1515 22.7879V28.4848M85.4546 22.7879V28.4848H91.1515M108.242 22.7879H113.939V28.4848M108.242 22.7879V28.4848M142.424 22.7879H136.727M142.424 22.7879V28.4848M136.727 22.7879V28.4848M176.606 22.7879H170.909M176.606 22.7879V28.4848M170.909 22.7879V28.4848M17.0909 28.4848H11.394M17.0909 28.4848V34.1818M11.394 28.4848V34.1818M28.4849 22.7879H22.7879V28.4848M28.4849 22.7879V28.4848M28.4849 22.7879H34.1818M28.4849 28.4848H22.7879M28.4849 28.4848H34.1818M28.4849 28.4848V34.1818M22.7879 28.4848V34.1818M34.1818 22.7879V28.4848M34.1818 22.7879H39.8788V28.4848M34.1818 28.4848H39.8788M34.1818 28.4848V34.1818M39.8788 28.4848V34.1818M51.2727 28.4848H45.5758M51.2727 28.4848V34.1818M45.5758 28.4848V34.1818M74.0606 28.4848H68.3636M74.0606 28.4848V34.1818M74.0606 28.4848H79.7576V34.1818M68.3636 28.4848V34.1818M91.1515 28.4848H96.8485M91.1515 28.4848V34.1818M113.939 28.4848H108.242M113.939 28.4848H119.636M113.939 28.4848V34.1818M108.242 28.4848H102.545M108.242 28.4848V34.1818M142.424 28.4848H136.727M142.424 28.4848V34.1818M136.727 28.4848V34.1818M153.818 22.7879H148.121V28.4848M153.818 22.7879V28.4848M153.818 22.7879H159.515M153.818 28.4848H148.121M153.818 28.4848H159.515M153.818 28.4848V34.1818M148.121 28.4848V34.1818M159.515 22.7879V28.4848M159.515 22.7879H165.212V28.4848M159.515 28.4848H165.212M159.515 28.4848V34.1818M165.212 28.4848V34.1818M176.606 28.4848H170.909M176.606 28.4848V34.1818M170.909 28.4848V34.1818M17.0909 34.1818H11.394M17.0909 34.1818V39.8788M11.394 34.1818V39.8788M28.4849 34.1818H22.7879M28.4849 34.1818H34.1818M28.4849 34.1818V39.8788M22.7879 34.1818V39.8788H28.4849M34.1818 34.1818H39.8788M34.1818 34.1818V39.8788M39.8788 34.1818V39.8788H34.1818M51.2727 34.1818H45.5758M51.2727 34.1818V39.8788M45.5758 34.1818V39.8788M62.6667 34.1818V28.4848H56.9697V34.1818M62.6667 34.1818H56.9697M62.6667 34.1818V39.8788M56.9697 34.1818V39.8788M74.0606 34.1818H68.3636M74.0606 34.1818H79.7576M74.0606 34.1818V39.8788M68.3636 34.1818V39.8788H74.0606M79.7576 34.1818V39.8788M96.8485 28.4848V34.1818M96.8485 28.4848H102.545M96.8485 34.1818H91.1515M96.8485 34.1818H102.545M96.8485 34.1818V39.8788H91.1515V34.1818M102.545 28.4848V34.1818M102.545 34.1818H108.242M108.242 34.1818H113.939M108.242 34.1818V39.8788M119.636 28.4848V34.1818M119.636 28.4848H125.333V34.1818H119.636M119.636 34.1818H113.939M119.636 34.1818V39.8788M113.939 34.1818V39.8788M142.424 34.1818H136.727M142.424 34.1818V39.8788M136.727 34.1818V39.8788M153.818 34.1818H148.121M153.818 34.1818H159.515M153.818 34.1818V39.8788M148.121 34.1818V39.8788H153.818M159.515 34.1818H165.212M159.515 34.1818V39.8788M165.212 34.1818V39.8788H159.515M176.606 34.1818H170.909M176.606 34.1818V39.8788M170.909 34.1818V39.8788M17.0909 39.8788H11.394M17.0909 39.8788V45.5757M11.394 39.8788V45.5757M28.4849 39.8788H34.1818M51.2727 39.8788H45.5758M51.2727 39.8788V45.5757M45.5758 39.8788V45.5757M62.6667 39.8788H56.9697M62.6667 39.8788V45.5757M56.9697 39.8788V45.5757M74.0606 39.8788H79.7576M79.7576 39.8788H85.4546V45.5757M79.7576 39.8788V45.5757M113.939 39.8788H108.242M113.939 39.8788H119.636M113.939 39.8788V45.5757M108.242 39.8788V45.5757M119.636 39.8788V45.5757M119.636 39.8788H125.333M142.424 39.8788H136.727M142.424 39.8788V45.5757M136.727 39.8788V45.5757M153.818 39.8788H159.515M176.606 39.8788H170.909M176.606 39.8788V45.5757M170.909 39.8788V45.5757M17.0909 45.5757H11.394M17.0909 45.5757V51.2727M17.0909 45.5757H22.7879M11.394 45.5757V51.2727H17.0909M51.2727 45.5757H45.5758M51.2727 45.5757V51.2727H45.5758M45.5758 45.5757H39.8788M45.5758 45.5757V51.2727M62.6667 45.5757H56.9697M62.6667 45.5757V51.2727H56.9697V45.5757M85.4546 45.5757H79.7576M85.4546 45.5757V51.2727M79.7576 45.5757V51.2727H85.4546M113.939 45.5757H108.242M113.939 45.5757H119.636M113.939 45.5757V51.2727H119.636M108.242 45.5757H102.545V51.2727M108.242 45.5757V51.2727H102.545M119.636 45.5757H125.333M119.636 45.5757V51.2727M125.333 39.8788V45.5757M125.333 39.8788H131.03V45.5757M125.333 45.5757H131.03M125.333 45.5757V51.2727M131.03 45.5757V51.2727M142.424 45.5757H136.727M142.424 45.5757V51.2727M142.424 45.5757H148.121M136.727 45.5757V51.2727H142.424M176.606 45.5757H170.909M176.606 45.5757V51.2727H170.909M170.909 45.5757H165.212M170.909 45.5757V51.2727M17.0909 51.2727H22.7879M22.7879 45.5757V51.2727M22.7879 45.5757H28.4849M22.7879 51.2727H28.4849M28.4849 45.5757V51.2727M28.4849 45.5757H34.1818M28.4849 51.2727H34.1818M34.1818 45.5757V51.2727M34.1818 45.5757H39.8788M34.1818 51.2727H39.8788M39.8788 45.5757V51.2727M39.8788 51.2727H45.5758M74.0606 51.2727V45.5757H68.3636V51.2727M74.0606 51.2727H68.3636M74.0606 51.2727V56.9697M68.3636 51.2727V56.9697H74.0606M85.4546 51.2727H91.1515M85.4546 51.2727V56.9697M96.8485 51.2727V45.5757H91.1515V51.2727M96.8485 51.2727H91.1515M96.8485 51.2727V56.9697M96.8485 51.2727H102.545M91.1515 51.2727V56.9697M102.545 51.2727V56.9697M119.636 51.2727H125.333M119.636 51.2727V56.9697M131.03 51.2727H125.333M131.03 51.2727V56.9697H125.333M125.333 51.2727V56.9697M142.424 51.2727H148.121M148.121 45.5757V51.2727M148.121 45.5757H153.818M148.121 51.2727H153.818M153.818 45.5757V51.2727M153.818 45.5757H159.515M153.818 51.2727H159.515M159.515 45.5757V51.2727M159.515 45.5757H165.212M159.515 51.2727H165.212M165.212 45.5757V51.2727M165.212 51.2727H170.909M74.0606 56.9697H79.7576M74.0606 56.9697V62.6666M91.1515 56.9697H85.4546M91.1515 56.9697H96.8485M85.4546 56.9697H79.7576M85.4546 56.9697V62.6666M96.8485 56.9697H102.545M102.545 56.9697H108.242M102.545 56.9697V62.6666H108.242M125.333 56.9697H119.636M125.333 56.9697V62.6666M119.636 56.9697V62.6666M34.1818 62.6666V56.9697H28.4849V62.6666M34.1818 62.6666H28.4849M34.1818 62.6666V68.3636M28.4849 62.6666V68.3636M45.5758 62.6666H51.2727V56.9697H45.5758V62.6666ZM45.5758 62.6666H39.8788V68.3636M45.5758 62.6666V68.3636M79.7576 56.9697V62.6666M79.7576 62.6666H74.0606M79.7576 62.6666H85.4546M74.0606 62.6666H68.3636M74.0606 62.6666V68.3636M85.4546 62.6666H91.1515V68.3636M85.4546 62.6666V68.3636M108.242 56.9697V62.6666M108.242 56.9697H113.939V62.6666M108.242 62.6666H113.939M108.242 62.6666V68.3636M113.939 62.6666V68.3636M125.333 62.6666H119.636M125.333 62.6666V68.3636M125.333 62.6666H131.03V68.3636M119.636 62.6666V68.3636H125.333M148.121 56.9697H142.424V62.6666M148.121 56.9697V62.6666M148.121 56.9697H153.818M148.121 62.6666H142.424M148.121 62.6666H153.818M148.121 62.6666V68.3636M142.424 62.6666H136.727V68.3636M142.424 62.6666V68.3636M153.818 56.9697V62.6666M153.818 56.9697H159.515V62.6666M153.818 62.6666H159.515M159.515 62.6666H165.212M159.515 62.6666V68.3636H165.212M170.909 56.9697H165.212V62.6666M170.909 56.9697V62.6666M170.909 56.9697H176.606V62.6666M170.909 62.6666H165.212M170.909 62.6666H176.606M170.909 62.6666V68.3636M165.212 62.6666V68.3636M176.606 62.6666V68.3636H170.909M34.1818 68.3636H28.4849M34.1818 68.3636H39.8788M34.1818 68.3636V74.0606M28.4849 68.3636H22.7879M28.4849 68.3636V74.0606M45.5758 68.3636H39.8788M45.5758 68.3636V74.0606M45.5758 68.3636H51.2727M39.8788 68.3636V74.0606M62.6667 62.6666H56.9697V68.3636M62.6667 62.6666V68.3636M62.6667 62.6666H68.3636M62.6667 68.3636H56.9697M62.6667 68.3636H68.3636M62.6667 68.3636V74.0606M56.9697 68.3636H51.2727M56.9697 68.3636V74.0606M68.3636 62.6666V68.3636M68.3636 68.3636H74.0606M68.3636 68.3636V74.0606M74.0606 68.3636H79.7576M74.0606 68.3636V74.0606M91.1515 68.3636H85.4546M91.1515 68.3636H96.8485V74.0606H91.1515M91.1515 68.3636V74.0606M85.4546 68.3636H79.7576M85.4546 68.3636V74.0606M113.939 68.3636H108.242M113.939 68.3636V74.0606M108.242 68.3636V74.0606M125.333 68.3636H131.03M125.333 68.3636V74.0606H131.03M131.03 68.3636V74.0606M131.03 68.3636H136.727M142.424 68.3636H136.727M142.424 68.3636H148.121M136.727 68.3636V74.0606M148.121 68.3636H153.818V74.0606M148.121 68.3636V74.0606M165.212 68.3636H170.909M165.212 68.3636V74.0606M170.909 68.3636V74.0606H165.212M17.0909 68.3636H11.394V74.0606M17.0909 68.3636V74.0606M17.0909 68.3636H22.7879M17.0909 74.0606H11.394M17.0909 74.0606H22.7879M17.0909 74.0606V79.7576M11.394 74.0606V79.7576H17.0909M22.7879 68.3636V74.0606M22.7879 74.0606H28.4849M22.7879 74.0606V79.7576M28.4849 74.0606H34.1818M28.4849 74.0606V79.7576M39.8788 74.0606H34.1818M39.8788 74.0606H45.5758M39.8788 74.0606V79.7576H45.5758M34.1818 74.0606V79.7576H28.4849M45.5758 74.0606H51.2727M45.5758 74.0606V79.7576M51.2727 68.3636V74.0606M51.2727 74.0606H56.9697M56.9697 74.0606H62.6667M62.6667 74.0606H68.3636M68.3636 74.0606H74.0606M68.3636 74.0606V79.7576M79.7576 68.3636V74.0606M79.7576 74.0606H74.0606M79.7576 74.0606H85.4546M79.7576 74.0606V79.7576H85.4546M74.0606 74.0606V79.7576M85.4546 74.0606V79.7576M85.4546 74.0606H91.1515M91.1515 74.0606V79.7576M113.939 74.0606H108.242M113.939 74.0606V79.7576M113.939 74.0606H119.636V79.7576M108.242 74.0606V79.7576H113.939M131.03 74.0606H136.727M136.727 74.0606H142.424M136.727 74.0606V79.7576M153.818 74.0606H148.121M153.818 74.0606V79.7576M148.121 74.0606H142.424M148.121 74.0606V79.7576M165.212 74.0606H159.515V79.7576M165.212 74.0606V79.7576H159.515M17.0909 79.7576H22.7879M22.7879 79.7576H28.4849M22.7879 79.7576V85.4545H28.4849V79.7576M45.5758 79.7576H51.2727M45.5758 79.7576V85.4545H51.2727M74.0606 79.7576H68.3636M74.0606 79.7576V85.4545M68.3636 79.7576H62.6667V85.4545H68.3636M68.3636 79.7576V85.4545M85.4546 79.7576H91.1515M85.4546 79.7576V85.4545H91.1515M91.1515 79.7576V85.4545M113.939 79.7576H119.636M119.636 79.7576H125.333M119.636 79.7576V85.4545M142.424 74.0606V79.7576M142.424 79.7576H136.727M142.424 79.7576H148.121M142.424 79.7576V85.4545H136.727M136.727 79.7576H131.03M136.727 79.7576V85.4545M148.121 79.7576H153.818M153.818 79.7576H159.515M153.818 79.7576V85.4545M159.515 79.7576V85.4545M51.2727 79.7576V85.4545M51.2727 79.7576H56.9697V85.4545M51.2727 85.4545H56.9697M51.2727 85.4545V91.1515M56.9697 85.4545V91.1515M68.3636 85.4545H74.0606M68.3636 85.4545V91.1515M74.0606 85.4545V91.1515M74.0606 85.4545H79.7576V91.1515M91.1515 85.4545H96.8485M91.1515 85.4545V91.1515H96.8485M102.545 85.4545V79.7576H96.8485V85.4545M102.545 85.4545H96.8485M102.545 85.4545V91.1515M96.8485 85.4545V91.1515M125.333 79.7576V85.4545M125.333 79.7576H131.03M125.333 85.4545H119.636M125.333 85.4545H131.03M125.333 85.4545V91.1515M119.636 85.4545V91.1515M131.03 79.7576V85.4545M131.03 85.4545H136.727M159.515 85.4545H153.818M159.515 85.4545V91.1515M159.515 85.4545H165.212M153.818 85.4545V91.1515M39.8788 91.1515V85.4545H34.1818V91.1515M39.8788 91.1515H34.1818M39.8788 91.1515H45.5758M39.8788 91.1515V96.8485M34.1818 91.1515H28.4849M34.1818 91.1515V96.8485M56.9697 91.1515H51.2727M56.9697 91.1515V96.8485M56.9697 91.1515H62.6667M51.2727 91.1515H45.5758M51.2727 91.1515V96.8485M74.0606 91.1515H68.3636M74.0606 91.1515H79.7576M74.0606 91.1515V96.8485M68.3636 91.1515H62.6667M68.3636 91.1515V96.8485M79.7576 91.1515V96.8485M79.7576 91.1515H85.4546V96.8485M96.8485 91.1515H102.545M102.545 91.1515H108.242M102.545 91.1515V96.8485H108.242M125.333 91.1515H119.636M125.333 91.1515H131.03V96.8485M125.333 91.1515V96.8485M119.636 91.1515H113.939M119.636 91.1515V96.8485M159.515 91.1515H153.818M159.515 91.1515H165.212M159.515 91.1515V96.8485H165.212V91.1515M153.818 91.1515H148.121V96.8485M153.818 91.1515V96.8485H148.121M165.212 85.4545V91.1515M165.212 85.4545H170.909V91.1515M165.212 91.1515H170.909M170.909 91.1515H176.606V96.8485H170.909V91.1515ZM28.4849 91.1515H22.7879V96.8485H28.4849M28.4849 91.1515V96.8485M28.4849 96.8485H34.1818M28.4849 96.8485V102.545M34.1818 96.8485V102.545M45.5758 91.1515V96.8485M45.5758 96.8485H39.8788M45.5758 96.8485H51.2727M45.5758 96.8485V102.545M39.8788 96.8485V102.545M51.2727 96.8485H56.9697M51.2727 96.8485V102.545M56.9697 96.8485H62.6667M56.9697 96.8485V102.545M62.6667 91.1515V96.8485M62.6667 96.8485H68.3636M62.6667 96.8485V102.545M68.3636 96.8485H74.0606M68.3636 96.8485V102.545M74.0606 96.8485H79.7576M79.7576 96.8485H85.4546M79.7576 96.8485V102.545M85.4546 96.8485V102.545M108.242 91.1515V96.8485M108.242 91.1515H113.939M108.242 96.8485H113.939M113.939 91.1515V96.8485M113.939 96.8485H119.636M113.939 96.8485V102.545M119.636 96.8485V102.545M119.636 96.8485H125.333M131.03 96.8485H125.333M131.03 96.8485V102.545M125.333 96.8485V102.545M142.424 96.8485V91.1515H136.727V96.8485M142.424 96.8485H136.727M142.424 96.8485V102.545M142.424 96.8485H148.121M136.727 96.8485V102.545H142.424M148.121 96.8485V102.545H142.424M34.1818 102.545H28.4849M34.1818 102.545H39.8788M34.1818 102.545V108.242H39.8788V102.545M28.4849 102.545H22.7879V108.242H28.4849V102.545ZM45.5758 102.545H39.8788M45.5758 102.545H51.2727M45.5758 102.545V108.242H51.2727M56.9697 102.545H51.2727M56.9697 102.545H62.6667M56.9697 102.545V108.242M51.2727 102.545V108.242M62.6667 102.545H68.3636M62.6667 102.545V108.242M68.3636 102.545V108.242M85.4546 102.545H79.7576M85.4546 102.545V108.242M79.7576 102.545H74.0606V108.242H79.7576M79.7576 102.545V108.242M119.636 102.545H113.939M119.636 102.545H125.333M113.939 102.545H108.242V108.242H113.939M113.939 102.545V108.242M125.333 102.545H131.03M125.333 102.545V108.242M131.03 102.545V108.242M51.2727 108.242H56.9697M56.9697 108.242H62.6667M56.9697 108.242V113.939M68.3636 108.242H62.6667M68.3636 108.242V113.939M62.6667 108.242V113.939M79.7576 108.242H85.4546M79.7576 108.242V113.939H85.4546M85.4546 108.242V113.939M85.4546 108.242H91.1515M96.8485 102.545H91.1515V108.242M96.8485 102.545V108.242M96.8485 102.545H102.545V108.242H96.8485M96.8485 108.242H91.1515M91.1515 108.242V113.939M113.939 108.242H119.636M113.939 108.242V113.939M131.03 108.242H125.333M131.03 108.242V113.939M125.333 108.242H119.636M125.333 108.242V113.939M170.909 102.545H165.212V108.242M170.909 102.545V108.242M170.909 102.545H176.606V108.242M170.909 108.242H165.212M170.909 108.242H176.606M170.909 108.242V113.939M165.212 108.242H159.515V113.939H165.212M165.212 108.242V113.939M176.606 108.242V113.939M62.6667 113.939H56.9697M62.6667 113.939H68.3636M62.6667 113.939V119.636H56.9697V113.939M68.3636 113.939H74.0606V119.636M68.3636 113.939V119.636M85.4546 113.939H91.1515M85.4546 113.939V119.636M91.1515 113.939V119.636M91.1515 113.939H96.8485V119.636M119.636 108.242V113.939M119.636 113.939H113.939M119.636 113.939H125.333M113.939 113.939H108.242V119.636M113.939 113.939V119.636M125.333 113.939H131.03M125.333 113.939V119.636M131.03 113.939V119.636M142.424 108.242H136.727V113.939M142.424 108.242V113.939M142.424 108.242H148.121V113.939M142.424 113.939H136.727M142.424 113.939H148.121M142.424 113.939V119.636M136.727 113.939V119.636M148.121 113.939V119.636M165.212 113.939H170.909M165.212 113.939V119.636H170.909M170.909 113.939H176.606M170.909 113.939V119.636M176.606 113.939V119.636M74.0606 119.636H68.3636M74.0606 119.636V125.333H68.3636M68.3636 119.636V125.333M91.1515 119.636H85.4546M91.1515 119.636H96.8485M91.1515 119.636V125.333M85.4546 119.636H79.7576V125.333M85.4546 119.636V125.333M96.8485 119.636V125.333M96.8485 119.636H102.545V125.333M113.939 119.636H108.242M113.939 119.636V125.333M113.939 119.636H119.636V125.333H113.939M108.242 119.636V125.333M131.03 119.636H125.333M131.03 119.636V125.333M131.03 119.636H136.727M125.333 119.636V125.333M142.424 119.636H136.727M142.424 119.636H148.121M142.424 119.636V125.333M136.727 119.636V125.333M148.121 119.636V125.333M170.909 119.636H176.606M170.909 119.636V125.333M176.606 119.636V125.333M39.8788 125.333V119.636H34.1818V125.333M39.8788 125.333H34.1818M39.8788 125.333V131.03M39.8788 125.333H45.5758M34.1818 125.333V131.03H39.8788M68.3636 125.333H62.6667V131.03M68.3636 125.333V131.03H62.6667M85.4546 125.333H79.7576M85.4546 125.333H91.1515M85.4546 125.333V131.03M79.7576 125.333V131.03M91.1515 125.333H96.8485M96.8485 125.333H102.545M102.545 125.333H108.242M102.545 125.333V131.03M113.939 125.333H108.242M113.939 125.333V131.03M108.242 125.333V131.03M131.03 125.333H125.333M131.03 125.333H136.727M131.03 125.333V131.03M125.333 125.333V131.03M136.727 125.333V131.03M136.727 125.333H142.424M148.121 125.333H142.424M148.121 125.333V131.03M148.121 125.333H153.818M142.424 125.333V131.03M159.515 125.333V119.636H153.818V125.333M159.515 125.333H153.818M159.515 125.333V131.03M159.515 125.333H165.212M153.818 125.333V131.03M176.606 125.333H170.909M176.606 125.333V131.03M170.909 125.333H165.212M170.909 125.333V131.03M39.8788 131.03H45.5758M45.5758 125.333V131.03M45.5758 125.333H51.2727M45.5758 131.03H51.2727M51.2727 125.333V131.03M51.2727 125.333H56.9697V131.03M51.2727 131.03H56.9697M56.9697 131.03H62.6667M56.9697 131.03V136.727H62.6667M62.6667 131.03V136.727M85.4546 131.03H79.7576M85.4546 131.03V136.727M85.4546 131.03H91.1515M79.7576 131.03H74.0606V136.727M79.7576 131.03V136.727M108.242 131.03H102.545M108.242 131.03H113.939M102.545 131.03H96.8485M102.545 131.03V136.727H96.8485M113.939 131.03H119.636M113.939 131.03V136.727M131.03 131.03H125.333M131.03 131.03H136.727M131.03 131.03V136.727M125.333 131.03H119.636M125.333 131.03V136.727M136.727 131.03H142.424M142.424 131.03H148.121M148.121 131.03H153.818M148.121 131.03V136.727M153.818 131.03H159.515M153.818 131.03V136.727M159.515 131.03H165.212M159.515 131.03V136.727H153.818M165.212 125.333V131.03M165.212 131.03H170.909M165.212 131.03V136.727M170.909 131.03H176.606M170.909 131.03V136.727M176.606 131.03V136.727H170.909M62.6667 136.727H68.3636M62.6667 136.727V142.424M79.7576 136.727H74.0606M79.7576 136.727H85.4546M79.7576 136.727V142.424H85.4546M74.0606 136.727H68.3636M74.0606 136.727V142.424M85.4546 136.727H91.1515M85.4546 136.727V142.424M91.1515 131.03V136.727M91.1515 131.03H96.8485M91.1515 136.727H96.8485M91.1515 136.727V142.424M96.8485 131.03V136.727M119.636 131.03V136.727M119.636 136.727H113.939M119.636 136.727H125.333M119.636 136.727V142.424H113.939M113.939 136.727V142.424M125.333 136.727H131.03M125.333 136.727V142.424M131.03 136.727V142.424M153.818 136.727H148.121M153.818 136.727V142.424M148.121 136.727V142.424M170.909 136.727H165.212M170.909 136.727V142.424M165.212 136.727V142.424M17.0909 136.727H11.394V142.424M17.0909 136.727V142.424M17.0909 136.727H22.7879M17.0909 142.424H11.394M17.0909 142.424H22.7879M17.0909 142.424V148.121M11.394 142.424V148.121M22.7879 136.727V142.424M22.7879 136.727H28.4849M22.7879 142.424H28.4849M28.4849 136.727V142.424M28.4849 136.727H34.1818M28.4849 142.424H34.1818M34.1818 136.727V142.424M34.1818 136.727H39.8788M34.1818 142.424H39.8788M39.8788 136.727V142.424M39.8788 136.727H45.5758M39.8788 142.424H45.5758M45.5758 136.727V142.424M45.5758 136.727H51.2727V142.424M45.5758 142.424H51.2727M45.5758 142.424V148.121M51.2727 142.424V148.121M68.3636 136.727V142.424M68.3636 142.424H62.6667M68.3636 142.424H74.0606M68.3636 142.424V148.121M62.6667 142.424V148.121H68.3636M74.0606 142.424V148.121M85.4546 142.424H91.1515M85.4546 142.424V148.121M91.1515 142.424V148.121M91.1515 142.424H96.8485V148.121M113.939 142.424H108.242M113.939 142.424V148.121M131.03 142.424H125.333M131.03 142.424V148.121M125.333 142.424V148.121M153.818 142.424H148.121M153.818 142.424V148.121M148.121 142.424V148.121M170.909 142.424H165.212M170.909 142.424H176.606V148.121H170.909M170.909 142.424V148.121M165.212 142.424H159.515V148.121M165.212 142.424V148.121M17.0909 148.121H11.394M17.0909 148.121V153.818M11.394 148.121V153.818M51.2727 148.121H45.5758M51.2727 148.121V153.818M45.5758 148.121V153.818M68.3636 148.121H74.0606M68.3636 148.121V153.818M74.0606 148.121V153.818M91.1515 148.121H85.4546M91.1515 148.121H96.8485M91.1515 148.121V153.818M85.4546 148.121H79.7576V153.818H85.4546M85.4546 148.121V153.818M96.8485 148.121V153.818H91.1515M108.242 142.424H102.545V148.121H108.242M108.242 142.424V148.121M108.242 148.121H113.939M108.242 148.121V153.818M113.939 148.121V153.818M131.03 148.121H125.333M131.03 148.121V153.818M131.03 148.121H136.727M125.333 148.121V153.818M153.818 148.121H148.121M153.818 148.121V153.818M153.818 148.121H159.515M148.121 148.121H142.424M148.121 148.121V153.818M165.212 148.121H159.515M165.212 148.121H170.909M165.212 148.121V153.818H170.909M159.515 148.121V153.818M170.909 148.121V153.818M17.0909 153.818H11.394M17.0909 153.818V159.515M11.394 153.818V159.515M28.4849 148.121H22.7879V153.818M28.4849 148.121V153.818M28.4849 148.121H34.1818M28.4849 153.818H22.7879M28.4849 153.818H34.1818M28.4849 153.818V159.515M22.7879 153.818V159.515M34.1818 148.121V153.818M34.1818 148.121H39.8788V153.818M34.1818 153.818H39.8788M34.1818 153.818V159.515M39.8788 153.818V159.515M51.2727 153.818H45.5758M51.2727 153.818V159.515M45.5758 153.818V159.515M74.0606 153.818H68.3636M74.0606 153.818V159.515M68.3636 153.818V159.515M85.4546 153.818H91.1515M113.939 153.818H108.242M113.939 153.818V159.515M108.242 153.818V159.515M131.03 153.818H125.333M131.03 153.818H136.727M125.333 153.818H119.636V159.515M125.333 153.818V159.515H119.636M136.727 148.121V153.818M136.727 148.121H142.424M136.727 153.818H142.424M136.727 153.818V159.515H142.424M142.424 148.121V153.818M142.424 153.818H148.121M142.424 153.818V159.515M148.121 153.818H153.818M148.121 153.818V159.515M153.818 153.818H159.515M153.818 153.818V159.515M159.515 153.818V159.515M170.909 153.818H176.606V159.515M170.909 153.818V159.515M17.0909 159.515H11.394M17.0909 159.515V165.212M11.394 159.515V165.212M28.4849 159.515H22.7879M28.4849 159.515H34.1818M28.4849 159.515V165.212M22.7879 159.515V165.212H28.4849M34.1818 159.515H39.8788M34.1818 159.515V165.212M39.8788 159.515V165.212H34.1818M51.2727 159.515H45.5758M51.2727 159.515V165.212M45.5758 159.515V165.212M74.0606 159.515H68.3636M74.0606 159.515V165.212M74.0606 159.515H79.7576V165.212M68.3636 159.515V165.212H74.0606M113.939 159.515H108.242M113.939 159.515H119.636M113.939 159.515V165.212M108.242 159.515H102.545M108.242 159.515V165.212M119.636 159.515V165.212M142.424 159.515H148.121M148.121 159.515H153.818M148.121 159.515V165.212M153.818 159.515H159.515M153.818 159.515V165.212H148.121M159.515 159.515H165.212V165.212M159.515 159.515V165.212H165.212M176.606 159.515H170.909M176.606 159.515V165.212H170.909M170.909 159.515V165.212M17.0909 165.212H11.394M17.0909 165.212V170.909M11.394 165.212V170.909M28.4849 165.212H34.1818M51.2727 165.212H45.5758M51.2727 165.212V170.909M45.5758 165.212V170.909M74.0606 165.212H79.7576M74.0606 165.212V170.909H79.7576M79.7576 165.212V170.909M102.545 159.515H96.8485V165.212M102.545 159.515V165.212M102.545 165.212H96.8485M102.545 165.212H108.242M102.545 165.212V170.909M96.8485 165.212H91.1515M96.8485 165.212V170.909H91.1515M108.242 165.212V170.909M108.242 165.212H113.939M119.636 165.212H113.939M119.636 165.212V170.909M113.939 165.212V170.909M148.121 165.212H142.424V170.909M148.121 165.212V170.909M165.212 165.212H170.909M165.212 165.212V170.909M170.909 165.212V170.909M17.0909 170.909H11.394M17.0909 170.909V176.606M17.0909 170.909H22.7879M11.394 170.909V176.606H17.0909M51.2727 170.909H45.5758M51.2727 170.909V176.606H45.5758M45.5758 170.909H39.8788M45.5758 170.909V176.606M79.7576 170.909H85.4546M79.7576 170.909V176.606H85.4546M91.1515 165.212H85.4546V170.909M91.1515 165.212V170.909M91.1515 170.909H85.4546M91.1515 170.909V176.606H85.4546M85.4546 170.909V176.606M108.242 170.909H102.545M108.242 170.909H113.939M108.242 170.909V176.606H102.545V170.909M113.939 170.909H119.636M113.939 170.909V176.606H119.636V170.909M131.03 165.212H125.333V170.909M131.03 165.212V170.909M131.03 165.212H136.727V170.909M131.03 170.909H125.333M131.03 170.909H136.727M131.03 170.909V176.606M125.333 170.909V176.606H131.03M136.727 170.909V176.606M136.727 170.909H142.424M148.121 170.909H142.424M148.121 170.909V176.606M148.121 170.909H153.818V176.606H148.121M142.424 170.909V176.606M170.909 170.909H165.212M170.909 170.909V176.606H165.212V170.909M17.0909 176.606H22.7879M22.7879 170.909V176.606M22.7879 170.909H28.4849M22.7879 176.606H28.4849M28.4849 170.909V176.606M28.4849 170.909H34.1818M28.4849 176.606H34.1818M34.1818 170.909V176.606M34.1818 170.909H39.8788M34.1818 176.606H39.8788M39.8788 170.909V176.606M39.8788 176.606H45.5758M131.03 176.606H136.727M136.727 176.606H142.424M142.424 176.606H148.121M11.394 91.1515H17.0909V96.8485H11.394V91.1515ZM11.394 102.545H17.0909V108.242H11.394V102.545ZM11.394 113.939H17.0909V119.636H11.394V113.939ZM22.7879 113.939H28.4849V119.636H22.7879V113.939ZM45.5758 113.939H51.2727V119.636H45.5758V113.939ZM11.394 125.333H17.0909V131.03H11.394V125.333ZM22.7879 125.333H28.4849V131.03H22.7879V125.333ZM136.727 136.727H142.424V142.424H136.727V136.727ZM56.9697 153.818H62.6667V159.515H56.9697V153.818ZM62.6667 170.909H68.3636V176.606H62.6667V170.909Z" stroke="black" stroke-width="0.5"/>
</svg>
