<svg width="14" height="15" viewBox="0 0 14 15" fill="none" xmlns="http://www.w3.org/2000/svg">
<g clip-path="url(#clip0_0_398)">
<path d="M6.99977 0.5C4.32091 0.5 2.14154 2.67969 2.14154 5.35862C2.14154 7.93733 6.5495 13.9621 6.73719 14.2172L6.91235 14.4556C6.93284 14.4836 6.96546 14.5 6.99977 14.5C7.03462 14.5 7.06703 14.4836 7.08773 14.4556L7.26279 14.2172C7.45058 13.9621 11.8584 7.93733 11.8584 5.35862C11.8584 2.67969 9.67871 0.5 6.99977 0.5ZM6.99977 3.61827C7.95962 3.61827 8.74013 4.39881 8.74013 5.35862C8.74013 6.31794 7.95958 7.09897 6.99977 7.09897C6.0405 7.09897 5.25942 6.31794 5.25942 5.35862C5.25942 4.39881 6.04046 3.61827 6.99977 3.61827Z" fill="black"/>
</g>
<defs>
<clipPath id="clip0_0_398">
<rect width="14" height="14" fill="white" transform="translate(0 0.5)"/>
</clipPath>
</defs>
</svg>
