<svg width="16" height="16" viewBox="0 0 16 16" fill="none" xmlns="http://www.w3.org/2000/svg">
<g clip-path="url(#clip0_0_391)">
<path d="M6.50891 0H6.51099V0.000934899C8.30775 0.00146913 9.93472 0.748988 11.1121 1.95688C12.2875 3.16303 13.0156 4.83036 13.0168 6.67184H13.0177V6.67625V6.68159H13.0168C13.0161 7.42377 12.8974 8.13803 12.679 8.80408C12.6424 8.91587 12.6041 9.02325 12.5648 9.12582V9.12675C12.3765 9.61557 12.1332 10.0777 11.8425 10.5033L15.6293 13.9944L15.6316 13.9965L15.6521 14.016L15.6535 14.0175C15.8673 14.2262 15.9837 14.5058 15.9984 14.7894C16.0128 15.0699 15.9277 15.3568 15.7408 15.5869L15.7393 15.589L15.7165 15.6162L15.712 15.6208L15.693 15.6422L15.6909 15.645C15.4871 15.8643 15.2151 15.9834 14.9383 15.9984C14.6652 16.0132 14.3853 15.9263 14.1608 15.7342L14.1588 15.7328L14.1323 15.7094L14.1285 15.7062L10.2554 12.1357C10.1408 12.2185 10.0239 12.2971 9.90555 12.3714C9.745 12.4722 9.57872 12.5672 9.40906 12.6539C8.53679 13.1002 7.5511 13.3513 6.50904 13.3513V13.3522H6.50695V13.3513C4.7102 13.3508 3.08297 12.6032 1.90561 11.3954C0.729824 10.1892 0.00208335 8.52161 0.000911466 6.68066H0V6.67625V6.67411H0.000911466C0.0014323 4.83116 0.730214 3.1621 1.90783 1.95447C3.08375 0.748988 4.70928 0.00213691 6.50461 0.000934899V0H6.50891ZM6.51099 1.49717V1.49811H6.50891H6.50461V1.49717C5.11319 1.49811 3.85198 2.07815 2.93896 3.01425C2.02606 3.95035 1.46004 5.24532 1.45965 6.67425H1.46056V6.67638V6.68079H1.45965C1.46056 8.10798 2.02567 9.40095 2.9387 10.3377C3.85133 11.2742 5.11384 11.8548 6.50682 11.8551V11.8541H6.50891H6.5132V11.8551C7.90462 11.8541 9.16531 11.2744 10.0786 10.338C10.9915 9.40188 11.5575 8.10731 11.5578 6.67852H11.557V6.67638V6.67198H11.5578C11.557 5.24478 10.9914 3.95115 10.0789 3.01465C9.16622 2.07815 7.9041 1.49758 6.51099 1.49717Z" fill="#3E3E3E"/>
</g>
<defs>
<clipPath id="clip0_0_391">
<rect width="16" height="16" fill="white"/>
</clipPath>
</defs>
</svg>
