<svg width="120" height="40" viewBox="0 0 120 40" fill="none" xmlns="http://www.w3.org/2000/svg">
<path d="M0 5.71431C0 2.55837 2.26214 0 5.05263 0H114.948C117.738 0 120 2.55838 120 5.71431V34.2857C120 37.4416 117.738 40 114.948 40H5.05263C2.26214 40 0 37.4416 0 34.2857V5.71431Z" fill="black"/>
<path fill-rule="evenodd" clip-rule="evenodd" d="M114.948 0.769231H5.05263C2.77321 0.769231 0.769231 2.89151 0.769231 5.71431V34.2857C0.769231 37.1085 2.77321 39.2308 5.05263 39.2308H114.948C117.227 39.2308 119.231 37.1085 119.231 34.2857V5.71431C119.231 2.89151 117.227 0.769231 114.948 0.769231ZM5.05263 0C2.26214 0 0 2.55837 0 5.71431V34.2857C0 37.4416 2.26214 40 5.05263 40H114.948C117.738 40 120 37.4416 120 34.2857V5.71431C120 2.55837 117.738 0 114.948 0H5.05263Z" fill="#A6A6A6"/>
<path d="M10.6279 31.6633C12.563 33.5713 15.6774 33.5713 21.9064 33.5713H23.0074C29.2364 33.5713 32.3508 33.5713 34.2859 31.6633C36.2209 29.7553 36.2209 26.6844 36.2209 20.5426V19.4569C36.2209 13.3152 36.2209 10.2443 34.2859 8.33633C32.3508 6.42841 29.2364 6.42841 23.0074 6.42841H21.9064C15.6774 6.42841 12.563 6.42841 10.6279 8.33633C8.6929 10.2443 8.6929 13.3152 8.6929 19.4569V20.5426C8.6929 26.6844 8.6929 29.7553 10.6279 31.6633Z" fill="#0077FF"/>
<path fill-rule="evenodd" clip-rule="evenodd" d="M29.9459 24.4692L28.0859 24.0111C27.8619 23.9477 27.7037 23.749 27.6958 23.5181L27.4637 16.768C27.3965 15.8746 26.7239 15.164 26.0211 14.9548C25.9816 14.943 25.9394 14.9588 25.9161 14.9923C25.8923 15.0264 25.9015 15.0734 25.9346 15.0987C26.1082 15.2312 26.5859 15.6635 26.5859 16.4092L26.5845 25.2348C26.5845 26.0869 25.7678 26.7119 24.9254 26.5044L23.0367 26.0392C22.8273 25.967 22.6817 25.7747 22.6741 25.5528L22.4421 18.8023C22.3749 17.9089 21.7023 17.1984 20.9994 16.9891C20.96 16.9774 20.9178 16.9931 20.8944 17.0266C20.8707 17.0607 20.8799 17.1078 20.913 17.1331C21.0866 17.2655 21.5643 17.6978 21.5643 18.4435L21.5629 25.8001L21.564 25.8002V27.2699C21.564 28.1221 20.7472 28.7471 19.9048 28.5396L14.57 27.2256C13.8283 27.0429 13.3083 26.3888 13.3083 25.6385V16.7991C13.3083 15.947 14.125 15.322 14.9674 15.5294L18.3289 16.3575V14.764C18.3289 13.9118 19.1456 13.2868 19.988 13.4943L23.3493 14.3222V12.7288C23.3493 11.8766 24.166 11.2515 25.0084 11.4591L30.3433 12.7731C31.085 12.9558 31.605 13.6099 31.605 14.3602V23.1995C31.605 24.0517 30.7883 24.6767 29.9459 24.4692Z" fill="white"/>
<path d="M52.345 31.4284H50.2413L46.9032 26.8342H45.1472V31.4284H43.3564V19.3427H47.6682C48.5027 19.3427 49.2503 19.5027 49.911 19.8227C50.5716 20.1427 51.0816 20.5884 51.4409 21.1599C51.8118 21.7199 51.9973 22.3656 51.9973 23.097C51.9973 24.0113 51.7133 24.7942 51.1454 25.4456C50.5775 26.0856 49.8182 26.5084 48.8678 26.7142L52.345 31.4284ZM45.1472 20.9713V25.2227H47.6682C48.4099 25.2227 49.0069 25.0284 49.4589 24.6399C49.9225 24.2399 50.1544 23.7256 50.1544 23.097C50.1544 22.4684 49.9225 21.9599 49.4589 21.5713C49.0069 21.1713 48.4099 20.9713 47.6682 20.9713H45.1472Z" fill="white"/>
<path d="M57.0965 31.6C56.459 31.6 55.8853 31.4457 55.3753 31.1372C54.8653 30.8172 54.4653 30.3829 54.1756 29.8344C53.8858 29.2744 53.741 28.6457 53.741 27.9486V22.5657H55.4448V27.8115C55.4448 28.4857 55.636 29.0344 56.0185 29.4572C56.401 29.88 56.8937 30.0915 57.4963 30.0915C58.1223 30.0915 58.6438 29.8744 59.0611 29.44C59.4784 29.0057 59.687 28.4629 59.687 27.8115V22.5657H61.3909V31.4286H60.1738L59.774 30.0915C59.4842 30.5715 59.1017 30.9429 58.6264 31.2057C58.1628 31.4686 57.6528 31.6 57.0965 31.6Z" fill="white"/>
<path d="M67.7423 31.6C66.618 31.6 65.6385 31.3143 64.804 30.7428C63.981 30.16 63.4189 29.3714 63.1175 28.3771L64.8387 28.1028C65.1749 28.7428 65.5748 29.2171 66.0384 29.5257C66.502 29.8228 67.07 29.9714 67.7423 29.9714C68.4261 29.9714 68.9824 29.8228 69.4113 29.5257C69.8402 29.2171 70.0546 28.8 70.0546 28.2743C70.0546 27.8857 69.9329 27.56 69.6895 27.2971C69.4576 27.0343 69.1621 26.8228 68.8028 26.6628C68.4435 26.5028 67.974 26.3257 67.3945 26.1314C66.618 25.88 65.9804 25.6285 65.482 25.3771C64.9837 25.1257 64.5606 24.7714 64.2129 24.3143C63.8767 23.8457 63.7086 23.2514 63.7086 22.5314C63.7086 21.8571 63.8767 21.2685 64.2129 20.7657C64.5606 20.2514 65.0358 19.8571 65.6385 19.5828C66.2413 19.3085 66.9135 19.1714 67.6553 19.1714C68.6869 19.1714 69.5736 19.44 70.3154 19.9771C71.0572 20.5028 71.5846 21.2285 71.8976 22.1543L70.2111 22.4285C69.9793 21.9028 69.649 21.5028 69.22 21.2285C68.7912 20.9428 68.287 20.8 67.7075 20.8C67.0816 20.8 66.5658 20.9485 66.1601 21.2457C65.7544 21.5314 65.5516 21.9257 65.5516 22.4285C65.5516 22.8057 65.6675 23.1257 65.8993 23.3885C66.1427 23.6514 66.4383 23.8628 66.786 24.0228C67.1453 24.1828 67.6206 24.3657 68.2117 24.5714C68.965 24.8228 69.591 25.08 70.0893 25.3428C70.5993 25.5943 71.0282 25.9543 71.376 26.4228C71.7236 26.8914 71.8976 27.48 71.8976 28.1885C71.8976 28.8743 71.7121 29.4743 71.3412 29.9885C70.9819 30.5028 70.4835 30.9028 69.846 31.1885C69.22 31.4628 68.5188 31.6 67.7423 31.6Z" fill="white"/>
<path d="M79.0949 29.9544L78.9387 31.4286H77.3564C76.4172 31.4286 75.7049 31.2001 75.218 30.7429C74.731 30.2858 74.4876 29.6286 74.4876 28.7715V24.0572H72.9402V22.5658H74.4876L74.9572 19.9944H76.191V22.5658H78.9387V24.0572H76.191V28.7715C76.191 29.5601 76.5795 29.9544 77.3564 29.9544H79.0949Z" fill="white"/>
<path d="M84.777 31.5998C83.8608 31.5998 83.0439 31.4055 82.3254 31.017C81.607 30.6283 81.0446 30.0855 80.6385 29.3883C80.2331 28.6913 80.03 27.897 80.03 27.0055C80.03 26.1141 80.2331 25.3198 80.6385 24.6226C81.0446 23.9255 81.607 23.3826 82.3254 22.9941C83.0439 22.5941 83.8608 22.3941 84.777 22.3941C85.6923 22.3941 86.5093 22.5941 87.2277 22.9941C87.947 23.3826 88.5085 23.9255 88.9146 24.6226C89.32 25.3198 89.5231 26.1141 89.5231 27.0055C89.5231 27.897 89.32 28.6913 88.9146 29.3883C88.5085 30.0855 87.947 30.6283 87.2277 31.017C86.5093 31.4055 85.6923 31.5998 84.777 31.5998ZM84.777 30.057C85.6577 30.057 86.37 29.777 86.9154 29.217C87.4716 28.657 87.75 27.9198 87.75 27.0055C87.75 26.0913 87.4716 25.3541 86.9154 24.7941C86.37 24.2226 85.6577 23.937 84.777 23.937C83.8954 23.937 83.1831 24.2226 82.6385 24.7941C82.0931 25.3541 81.8208 26.0913 81.8208 27.0055C81.8208 27.9083 82.0931 28.6455 82.6385 29.217C83.1831 29.777 83.8954 30.057 84.777 30.057Z" fill="white"/>
<path d="M91.3507 31.4286V22.5657H92.5853L92.9507 23.8344C93.2168 23.3886 93.5476 23.0686 93.9414 22.8743C94.3353 22.6686 94.8053 22.5657 95.3499 22.5657H95.7668L95.9061 24.1772H94.9322C94.3068 24.1772 93.8368 24.3544 93.5245 24.7086C93.2114 25.0629 93.0545 25.5429 93.0545 26.1486V31.4286H91.3507Z" fill="white"/>
<path d="M105.646 26.937C105.646 27.1655 105.641 27.3426 105.629 27.4683H98.2049C98.298 28.257 98.611 28.8855 99.1441 29.3541C99.6772 29.8226 100.356 30.057 101.178 30.057C101.746 30.057 102.25 29.9483 102.691 29.7313C103.143 29.5026 103.485 29.2055 103.716 28.8398L105.316 29.097C104.969 29.897 104.406 30.5141 103.629 30.9483C102.865 31.3826 102.013 31.5998 101.074 31.5998C100.182 31.5998 99.3818 31.4055 98.6749 31.017C97.9679 30.617 97.4172 30.0683 97.0233 29.3713C96.6287 28.6741 96.4318 27.8855 96.4318 27.0055C96.4318 26.1141 96.6287 25.3198 97.0233 24.6226C97.4172 23.9255 97.9618 23.3826 98.6572 22.9941C99.3526 22.5941 100.146 22.3941 101.039 22.3941C101.92 22.3941 102.708 22.5941 103.403 22.9941C104.111 23.3826 104.661 23.9255 105.056 24.6226C105.449 25.3083 105.646 26.0798 105.646 26.937ZM101.039 23.8855C100.356 23.8855 99.7641 24.0855 99.2656 24.4855C98.7787 24.8855 98.4541 25.4226 98.2918 26.097H103.786C103.636 25.4341 103.311 24.9026 102.813 24.5026C102.326 24.0913 101.735 23.8855 101.039 23.8855Z" fill="white"/>
<path d="M45.8892 14.7076C45.2799 14.7076 44.7322 14.5661 44.2461 14.283C43.7599 13.9938 43.3784 13.5938 43.1015 13.083C42.8307 12.5722 42.6953 11.9969 42.6953 11.3569C42.6953 10.7169 42.8307 10.1446 43.1015 9.63994C43.3784 9.12917 43.7569 8.73224 44.2369 8.44917C44.723 8.15994 45.2707 8.01532 45.8799 8.01532C46.5384 8.01532 47.123 8.18147 47.6338 8.51378C48.1507 8.83994 48.5199 9.28301 48.7415 9.84301L47.7999 9.9907C47.6276 9.64609 47.3722 9.3784 47.0338 9.18763C46.7015 8.9907 46.3261 8.89224 45.9076 8.89224C45.4769 8.89224 45.0922 8.99686 44.7538 9.20609C44.4215 9.41532 44.1599 9.70763 43.9692 10.083C43.7845 10.4522 43.6922 10.8769 43.6922 11.3569C43.6922 11.843 43.7845 12.2738 43.9692 12.6492C44.1599 13.0184 44.4245 13.3076 44.763 13.5169C45.1015 13.7261 45.4892 13.8307 45.9261 13.8307C46.3569 13.8307 46.7384 13.7322 47.0707 13.5353C47.4092 13.3322 47.6676 13.0492 47.8461 12.6861L48.7876 12.8338C48.5538 13.4061 48.1753 13.8615 47.6522 14.1999C47.1292 14.5384 46.5415 14.7076 45.8892 14.7076Z" fill="white"/>
<path d="M53.6113 14.6153H52.4205L50.6574 12.6399H50.3713V14.6153H49.4666V9.84302H50.3713V11.7722H50.6482L52.3374 9.84302H53.4266L51.3774 12.1507L53.6113 14.6153Z" fill="white"/>
<path d="M55.7628 9.75061C56.3536 9.75061 56.8182 9.94446 57.1566 10.3321C57.5012 10.7137 57.6736 11.2491 57.6736 11.9383V14.6152H57.0274L56.8151 13.8675C56.6612 14.1075 56.4551 14.3075 56.1966 14.4675C55.9382 14.6275 55.6274 14.7075 55.2643 14.7075C54.9443 14.7075 54.6582 14.6429 54.4059 14.5137C54.1536 14.3845 53.9566 14.206 53.8151 13.9783C53.6736 13.7445 53.6028 13.4829 53.6028 13.1937C53.6028 12.7445 53.7812 12.3845 54.1382 12.1137C54.4951 11.8429 55.012 11.7075 55.6889 11.7075H56.7689C56.7443 11.3321 56.6397 11.0429 56.4551 10.8398C56.2705 10.6306 56.0243 10.526 55.7166 10.526C55.4828 10.526 55.2766 10.5814 55.0982 10.6921C54.9197 10.8029 54.7843 10.9475 54.692 11.126L53.852 10.9875C53.9751 10.606 54.212 10.3045 54.5628 10.0829C54.9136 9.86138 55.3136 9.75061 55.7628 9.75061ZM55.4582 13.9414C55.8459 13.9414 56.1597 13.8152 56.3997 13.5629C56.6459 13.3045 56.7689 12.9506 56.7689 12.5014V12.446H55.7166C54.9166 12.446 54.5166 12.686 54.5166 13.166C54.5166 13.3998 54.6028 13.5875 54.7751 13.7291C54.9474 13.8706 55.1751 13.9414 55.4582 13.9414Z" fill="white"/>
<path d="M61.2175 12.8799C61.0698 12.9476 60.8944 12.9999 60.6914 13.0369C60.4883 13.0738 60.2883 13.0922 60.0914 13.0922C59.519 13.0922 59.079 12.9322 58.7714 12.6122C58.4637 12.2922 58.3098 11.8399 58.3098 11.2553V9.84302H59.2144V11.2553C59.2144 11.9384 59.5437 12.2799 60.2021 12.2799C60.6021 12.2799 60.9406 12.2092 61.2175 12.0676V9.84302H62.1221V14.6153H61.2175V12.8799Z" fill="white"/>
<path d="M65.0656 9.75061C65.6564 9.75061 66.121 9.94446 66.4595 10.3321C66.8041 10.7137 66.9764 11.2491 66.9764 11.9383V14.6152H66.3303L66.1179 13.8675C65.9641 14.1075 65.7579 14.3075 65.4995 14.4675C65.241 14.6275 64.9303 14.7075 64.5672 14.7075C64.2472 14.7075 63.961 14.6429 63.7087 14.5137C63.4564 14.3845 63.2595 14.206 63.1179 13.9783C62.9764 13.7445 62.9056 13.4829 62.9056 13.1937C62.9056 12.7445 63.0841 12.3845 63.441 12.1137C63.7979 11.8429 64.3149 11.7075 64.9918 11.7075H66.0718C66.0472 11.3321 65.9426 11.0429 65.7579 10.8398C65.5733 10.6306 65.3272 10.526 65.0195 10.526C64.7856 10.526 64.5795 10.5814 64.401 10.6921C64.2226 10.8029 64.0872 10.9475 63.9949 11.126L63.1549 10.9875C63.2779 10.606 63.5149 10.3045 63.8656 10.0829C64.2164 9.86138 64.6164 9.75061 65.0656 9.75061ZM64.761 13.9414C65.1487 13.9414 65.4626 13.8152 65.7026 13.5629C65.9487 13.3045 66.0718 12.9506 66.0718 12.5014V12.446H65.0195C64.2195 12.446 63.8195 12.686 63.8195 13.166C63.8195 13.3998 63.9056 13.5875 64.0779 13.7291C64.2503 13.8706 64.4779 13.9414 64.761 13.9414Z" fill="white"/>
<path d="M69.3207 14.6154H67.9823V9.84305H68.8592V13.6H68.9977L70.9269 9.84305H72.2653V14.6154H71.3884V10.8677H71.25L69.3207 14.6154ZM70.133 9.22459C69.733 9.22459 69.3977 9.11998 69.1269 8.91074C68.8623 8.69536 68.7054 8.37536 68.6561 7.95074H69.3946C69.4254 8.14767 69.5023 8.29844 69.6253 8.40305C69.7546 8.50151 69.9238 8.55074 70.133 8.55074C70.3423 8.55074 70.5084 8.50151 70.6315 8.40305C70.7607 8.29844 70.8377 8.14767 70.8623 7.95074H71.61C71.5546 8.37536 71.3915 8.69536 71.1207 8.91074C70.8561 9.11998 70.5269 9.22459 70.133 9.22459Z" fill="white"/>
<path d="M75.4098 14.6153H74.5054V10.6738H72.8531V9.84302H77.0621V10.6738H75.4098V14.6153Z" fill="white"/>
<path d="M82.0993 12.1968C82.0993 12.3198 82.0963 12.4152 82.0901 12.4829H78.1486C78.1978 12.9075 78.3639 13.246 78.647 13.4983C78.9301 13.7506 79.2901 13.8768 79.727 13.8768C80.0286 13.8768 80.2963 13.8183 80.5301 13.7014C80.7701 13.5783 80.9516 13.4183 81.0747 13.2214L81.924 13.3598C81.7393 13.7906 81.4409 14.1229 81.0286 14.3568C80.6224 14.5906 80.1701 14.7075 79.6716 14.7075C79.1978 14.7075 78.7732 14.6029 78.3978 14.3937C78.0224 14.1783 77.7301 13.8829 77.5209 13.5075C77.3116 13.1321 77.207 12.7075 77.207 12.2337C77.207 11.7537 77.3116 11.326 77.5209 10.9506C77.7301 10.5752 78.0193 10.2829 78.3886 10.0737C78.7578 9.8583 79.1793 9.75061 79.6532 9.75061C80.1209 9.75061 80.5393 9.8583 80.9086 10.0737C81.284 10.2829 81.5763 10.5752 81.7855 10.9506C81.9947 11.3198 82.0993 11.7352 82.0993 12.1968ZM79.6532 10.5537C79.2901 10.5537 78.9763 10.6614 78.7116 10.8768C78.4532 11.0921 78.2809 11.3814 78.1947 11.7445H81.1116C81.0316 11.3875 80.8593 11.1014 80.5947 10.886C80.3363 10.6645 80.0224 10.5537 79.6532 10.5537Z" fill="white"/>
<path d="M86.1612 14.6153H84.8227V9.84302H85.6996V13.5999H85.8381L87.7673 9.84302H89.1058V14.6153H88.2289V10.8676H88.0904L86.1612 14.6153Z" fill="white"/>
<path d="M92.7663 12.1783C93.0186 12.2521 93.2278 12.3875 93.394 12.5845C93.5601 12.7752 93.6432 13.0121 93.6432 13.2952C93.6432 13.5598 93.5663 13.7998 93.4124 14.0152C93.2586 14.2245 93.037 14.3937 92.7478 14.5229C92.4647 14.646 92.1355 14.7075 91.7601 14.7075C91.2555 14.7075 90.8217 14.5906 90.4586 14.3568C90.0955 14.1168 89.8555 13.7968 89.7386 13.3968L90.5786 13.2583C90.7817 13.7014 91.1724 13.9229 91.7509 13.9229C92.0709 13.9229 92.314 13.8645 92.4801 13.7475C92.6524 13.6245 92.7386 13.4552 92.7386 13.2398C92.7386 13.0491 92.6586 12.8952 92.4986 12.7783C92.3447 12.6614 92.0955 12.6029 91.7509 12.6029H91.1232V11.8091H91.7509C92.0463 11.8091 92.2709 11.7537 92.4247 11.6429C92.5847 11.5321 92.6647 11.3845 92.6647 11.1998C92.6647 11.0029 92.5786 10.8429 92.4063 10.7198C92.2401 10.5968 92.034 10.5352 91.7878 10.5352C91.5478 10.5352 91.3324 10.5937 91.1417 10.7106C90.9509 10.8275 90.8063 10.9875 90.7078 11.1906L89.8678 11.0429C90.0094 10.6306 90.2524 10.3137 90.597 10.0921C90.9478 9.86446 91.354 9.75061 91.8155 9.75061C92.1478 9.75061 92.4463 9.80907 92.7109 9.92599C92.9817 10.0429 93.1909 10.206 93.3386 10.4152C93.4924 10.6245 93.5694 10.8583 93.5694 11.1168C93.5694 11.3814 93.4955 11.606 93.3478 11.7906C93.2001 11.9752 93.0063 12.1045 92.7663 12.1783Z" fill="white"/>
</svg>
